<svg width="64" height="64" viewBox="0 0 64 64" fill="none" xmlns="http://www.w3.org/2000/svg">
<path fill-rule="evenodd" clip-rule="evenodd" d="M37.4919 8.16943C35.859 8.16943 34.5236 9.50406 34.5236 11.1361C34.5236 12.7681 35.859 14.1027 37.4919 14.1027H48.6705C50.3034 14.1027 51.6387 12.7681 51.6387 11.1361C51.6387 9.50406 50.3034 8.16943 48.6705 8.16943H37.4919Z" fill="#CCF5FC"/>
<path fill-rule="evenodd" clip-rule="evenodd" d="M11.6954 8.16943C10.0554 8.16943 8.72711 9.49693 8.72711 11.1361C8.72711 12.7752 10.0554 14.1027 11.6954 14.1027C13.3354 14.1027 14.6671 12.7752 14.6671 11.1361C14.6671 9.49706 13.3352 8.16943 11.6954 8.16943Z" fill="#CCF5FC"/>
<path d="M11.6954 14.117C10.0508 14.117 8.71289 12.7798 8.71289 11.1361C8.71289 9.49252 10.0508 8.15527 11.6954 8.15527C13.3419 8.15527 14.6814 9.49252 14.6814 11.1361C14.6814 12.7798 13.3419 14.117 11.6954 14.117ZM11.6954 8.18377C10.0665 8.18377 8.74139 9.50815 8.74139 11.1361C8.74139 12.7641 10.0665 14.0885 11.6954 14.0885C13.3261 14.0885 14.6529 12.7641 14.6529 11.1361C14.6529 9.50815 13.3261 8.18377 11.6954 8.18377Z" fill="#8AA8BD"/>
<path fill-rule="evenodd" clip-rule="evenodd" d="M22.6543 8.16943C21.0143 8.16943 19.6861 9.49693 19.6861 11.1361C19.6861 12.7752 21.0143 14.1027 22.6543 14.1027C24.2943 14.1027 25.6261 12.7752 25.6261 11.1361C25.6261 9.49706 24.2943 8.16943 22.6543 8.16943Z" fill="#DC72A9"/>
<path fill-rule="evenodd" clip-rule="evenodd" d="M47.8984 39.9672C44.3386 39.9672 41.4554 42.8489 41.4554 46.4067C41.4554 49.961 44.3386 52.8427 47.8984 52.8427C51.4546 52.8427 54.3378 49.9609 54.3378 46.4067C54.3378 42.8489 51.4545 39.9672 47.8984 39.9672Z" fill="white"/>
<path fill-rule="evenodd" clip-rule="evenodd" d="M45.1498 33.1346V34.5754C43.8038 34.8906 42.5429 35.4251 41.4094 36.1437L40.3928 35.1312C39.7871 34.5223 38.7918 34.5223 38.1825 35.1312L36.5709 36.7419C35.9616 37.3508 35.9616 38.3457 36.5709 38.9509L37.598 39.9811C36.8931 41.1103 36.3689 42.3636 36.0643 43.7018H34.6191C33.7584 43.7018 33.0571 44.4063 33.0571 45.2631V47.5465C33.0571 48.4032 33.7585 49.1077 34.6191 49.1077H36.0679C36.376 50.453 36.9074 51.7132 37.6229 52.8461L36.5993 53.8657C35.9936 54.4746 35.9936 55.4695 36.5993 56.0747L38.2144 57.6891C38.82 58.298 39.8154 58.298 40.4246 57.6891L41.4448 56.6694C42.5818 57.3811 43.8463 57.9156 45.1923 58.2201V59.6751C45.1923 60.5353 45.8971 61.2398 46.7543 61.2398H49.0389C49.896 61.2398 50.6009 60.5353 50.6009 59.6751V58.2237C51.9539 57.9157 53.2184 57.3847 54.3554 56.6696L55.379 57.6892C55.9846 58.2981 56.98 58.2981 57.5893 57.6892L59.2009 56.0748C59.8101 55.4695 59.8101 54.4747 59.2009 53.8658L58.1808 52.8462C58.8928 51.7133 59.424 50.4531 59.7321 49.1078H61.1738C62.0345 49.1078 62.7394 48.4033 62.7394 47.5466V45.2632C62.7394 44.4064 62.0345 43.7019 61.1738 43.7019H59.7393C59.4311 42.3496 58.8998 41.0822 58.1808 39.9423L59.2009 38.9192C59.8101 38.3138 59.8101 37.3191 59.2009 36.7102L58.1808 35.6906L57.5893 35.0993C56.98 34.4905 55.9848 34.4905 55.379 35.0993L54.3554 36.1189C53.2043 35.3967 51.9255 34.8587 50.5584 34.5542V33.1346C50.5584 32.2743 49.8535 31.5698 48.9928 31.5698H46.7118C45.8511 31.5698 45.1498 32.2743 45.1498 33.1346ZM47.8984 39.9671C51.4546 39.9671 54.3378 42.8488 54.3378 46.4066C54.3378 49.9609 51.4545 52.8426 47.8984 52.8426C44.3386 52.8426 41.4554 49.9608 41.4554 46.4066C41.4554 42.8488 44.3386 39.9671 47.8984 39.9671Z" fill="#CCF5FC"/>
<path fill-rule="evenodd" clip-rule="evenodd" d="M53.5266 2.76001H11.3057H5.91475C3.35387 2.76001 1.2605 5.25938 1.2605 8.31801V19.42H20.8656H58.1809V8.31813C58.1809 5.26288 56.0875 2.76001 53.5266 2.76001ZM22.6544 8.16939C24.2944 8.16939 25.6261 9.49689 25.6261 11.136C25.6261 12.7751 24.2944 14.1026 22.6544 14.1026C21.0144 14.1026 19.6861 12.7751 19.6861 11.136C19.6861 9.49701 21.0144 8.16939 22.6544 8.16939ZM11.6954 8.16939C13.3354 8.16939 14.6671 9.49689 14.6671 11.136C14.6671 12.7751 13.3354 14.1026 11.6954 14.1026C10.0554 14.1026 8.72712 12.7751 8.72712 11.136C8.72712 9.49701 10.0554 8.16939 11.6954 8.16939ZM34.5238 11.136C34.5238 9.50401 35.8591 8.16939 37.492 8.16939H48.6706C50.3035 8.16939 51.6389 9.50401 51.6389 11.136C51.6389 12.768 50.3035 14.1026 48.6706 14.1026H37.492C35.859 14.1028 34.5238 12.7681 34.5238 11.136Z" fill="#8AA8BD"/>
<path fill-rule="evenodd" clip-rule="evenodd" d="M20.8656 19.42H1.2605V43.5498C1.2605 46.6049 3.35737 49.1078 5.91475 49.1078H34.6192C33.7585 49.1078 33.0572 48.4033 33.0572 47.5465V45.2632C33.0572 44.4064 33.7586 43.7019 34.6192 43.7019H36.0644C36.369 42.3638 36.8932 41.1105 37.5981 39.9812L36.571 38.951C35.9617 38.3457 35.9617 37.3509 36.571 36.742L38.1826 35.1313C38.7919 34.5224 39.7871 34.5224 40.3929 35.1313L41.4095 36.1438C42.543 35.4252 43.8039 34.8905 45.1499 34.5755V33.1347C45.1499 32.2744 45.8513 31.5699 46.7119 31.5699H48.9929C49.8536 31.5699 50.5585 32.2744 50.5585 33.1347V34.5543C51.9257 34.8588 53.2044 35.3968 54.3555 36.119L55.3791 35.0994C55.9847 34.4905 56.9801 34.4905 57.5894 35.0994L58.1809 35.6907V19.42H20.8656Z" fill="white"/>
<path d="M11.6954 6.90894C9.36361 6.90894 7.46661 8.80531 7.46661 11.1361C7.46661 13.4668 9.36361 15.3632 11.6954 15.3632C14.029 15.3632 15.9276 13.4668 15.9276 11.1361C15.9276 8.80531 14.029 6.90894 11.6954 6.90894ZM11.6954 12.8422C10.7537 12.8422 9.98774 12.0768 9.98774 11.1361C9.98774 10.1953 10.7537 9.43006 11.6954 9.43006C12.6389 9.43006 13.4066 10.1954 13.4066 11.1362C13.4066 12.0769 12.6389 12.8422 11.6954 12.8422Z" fill="black"/>
<path d="M48.6705 6.90894H37.4919C35.1601 6.90894 33.2631 8.80531 33.2631 11.1361C33.2631 13.4668 35.1601 15.3632 37.4919 15.3632H48.6705C51.0022 15.3632 52.8992 13.4668 52.8992 11.1361C52.8992 8.80531 51.0022 6.90894 48.6705 6.90894ZM48.6705 12.8422H37.4919C36.5502 12.8422 35.7842 12.0768 35.7842 11.1361C35.7842 10.1953 36.5504 9.42994 37.4919 9.42994H48.6705C49.6121 9.42994 50.3781 10.1953 50.3781 11.1361C50.3781 12.0768 49.6121 12.8422 48.6705 12.8422Z" fill="black"/>
<path d="M22.6543 6.90894C20.3226 6.90894 18.4256 8.80531 18.4256 11.1361C18.4256 13.4668 20.3226 15.3632 22.6543 15.3632C24.988 15.3632 26.8866 13.4668 26.8866 11.1361C26.8866 8.80531 24.988 6.90894 22.6543 6.90894ZM22.6543 12.8422C21.7127 12.8422 20.9467 12.0768 20.9467 11.1361C20.9467 10.1953 21.7128 9.42994 22.6543 9.42994C23.5978 9.42994 24.3656 10.1953 24.3656 11.1361C24.3656 12.0768 23.5978 12.8422 22.6543 12.8422Z" fill="black"/>
<path d="M20.599 27.8055C19.9221 27.6434 19.2417 28.0613 19.08 28.7385L16.5792 39.2033C16.4175 39.8804 16.8351 40.5606 17.5122 40.7223C17.6107 40.7458 17.7094 40.7572 17.8064 40.7572C18.3762 40.7572 18.893 40.3679 19.0312 39.7893L21.532 29.3245C21.6939 28.6474 21.2761 27.9674 20.599 27.8055Z" fill="black"/>
<path d="M25.2268 39.4924C25.4671 39.7064 25.7666 39.8117 26.0648 39.8117C26.412 39.8117 26.7576 39.6692 27.0067 39.3896L30.5415 35.4216C31.1247 34.7723 31.1247 33.7556 30.5451 33.1104L27.0066 29.1383C26.5433 28.6183 25.7465 28.5726 25.2268 29.0354C24.7068 29.4986 24.6608 30.2954 25.124 30.8152L28.1961 34.2638L25.124 37.7126C24.661 38.2326 24.707 39.0294 25.2268 39.4924Z" fill="black"/>
<path d="M12.8845 29.0355C12.3645 28.5724 11.5679 28.6188 11.1048 29.1384L7.5704 33.106C6.9864 33.7554 6.9864 34.7727 7.5664 35.4175L11.1049 39.3897C11.354 39.6694 11.6995 39.8118 12.0468 39.8118C12.345 39.8118 12.6446 39.7065 12.8848 39.4925C13.4048 39.0294 13.4508 38.2325 12.9876 37.7128L9.91552 34.2642L12.9876 30.8154C13.4505 30.2954 13.4045 29.4985 12.8845 29.0355Z" fill="black"/>
<path d="M61.1739 42.4415H60.7059C60.4608 41.6475 60.1431 40.881 59.7556 40.1485L60.0896 39.8134C60.623 39.2833 60.9174 38.5754 60.9185 37.8201C60.9196 37.0631 60.6263 36.3524 60.0923 35.8185L59.4415 35.1681V8.31814C59.4415 4.55826 56.7882 1.49951 53.5267 1.49951H5.91475C2.65325 1.49951 0 4.55826 0 8.31814V43.5498C0 47.3096 2.65325 50.3684 5.91475 50.3684H13.3105C14.0066 50.3684 14.571 49.804 14.571 49.1079C14.571 48.4118 14.0066 47.8474 13.3105 47.8474H5.91475C4.07525 47.8474 2.52113 45.8793 2.52113 43.5499V20.6806H56.9202V33.4188C56.7766 33.3966 56.6311 33.3821 56.483 33.3821C56.4815 33.3821 56.48 33.3821 56.4786 33.3821C55.7234 33.3834 55.0155 33.6774 54.4895 34.2063L54.1488 34.5455C53.4009 34.1504 52.622 33.829 51.8189 33.5836V33.1346C51.8189 31.5766 50.5511 30.3093 48.9927 30.3093H46.7116C45.1552 30.3093 43.8891 31.5766 43.8891 33.1346V33.6144C43.1011 33.862 42.3402 34.1806 41.613 34.5676L41.2865 34.2421C40.7562 33.7093 40.0482 33.415 39.293 33.4139C39.2916 33.4139 39.2902 33.4139 39.2887 33.4139C38.5334 33.4139 37.8241 33.707 37.2912 34.2395L35.6796 35.8504C35.1456 36.3841 34.8522 37.095 34.8534 37.8519C34.8545 38.6071 35.1487 39.315 35.6781 39.841L36.0262 40.1901C35.6484 40.9114 35.338 41.6638 35.0979 42.4413H34.6191C33.0626 42.4413 31.7965 43.707 31.7965 45.263V47.5464C31.7965 47.6479 31.8021 47.7481 31.8126 47.8469H24.4783C23.7821 47.8469 23.2178 48.4113 23.2178 49.1074C23.2178 49.8035 23.7821 50.3679 24.4783 50.3679H34.619H35.1026C35.3464 51.1528 35.6615 51.9111 36.0459 52.6371L35.7052 52.9763C34.6086 54.0788 34.6096 55.8686 35.7079 56.966L37.3204 58.5779C37.8506 59.1108 38.5586 59.405 39.3139 59.4061H39.318C40.0735 59.4061 40.7827 59.113 41.3156 58.5804L41.6533 58.243C42.3858 58.6291 43.1474 58.9446 43.9314 59.187V59.6749C43.9314 61.2329 45.1975 62.5003 46.754 62.5003H49.0386C50.595 62.5003 51.8611 61.2329 51.8611 59.6749V59.19C52.6525 58.9459 53.4173 58.6291 54.1489 58.2429L54.485 58.5778C55.0151 59.1108 55.723 59.4049 56.4782 59.4061H56.4826C57.238 59.4061 57.9472 59.113 58.4811 58.5795L60.0892 56.9686C60.6226 56.4385 60.917 55.7306 60.9181 54.9754C60.9193 54.2184 60.6259 53.5076 60.0918 52.9738L59.7554 52.6375C60.139 51.9109 60.4539 51.152 60.6973 50.368H61.1736C62.732 50.368 63.9997 49.1023 63.9997 47.5464V45.263C64 43.7073 62.7322 42.4415 61.1739 42.4415ZM2.52113 18.1595V8.31814C2.52113 5.98876 4.07525 4.02064 5.91475 4.02064H53.5267C55.3662 4.02064 56.9204 5.98876 56.9204 8.31814V18.1596L2.52113 18.1595ZM61.4789 47.5466C61.4789 47.7068 61.3364 47.8471 61.1738 47.8471H59.7323C59.1445 47.8471 58.6348 48.2533 58.5035 48.8261C58.2313 50.0143 57.7636 51.141 57.1135 52.1754C56.8004 52.6735 56.8735 53.322 57.2897 53.7379L58.3097 54.7573C58.386 54.8335 58.3973 54.9245 58.3973 54.972C58.3971 55.0288 58.3824 55.1111 58.3088 55.1841L56.6982 56.7975C56.6219 56.8738 56.5307 56.8853 56.4827 56.8853C56.4826 56.8853 56.4825 56.8853 56.4825 56.8853C56.4252 56.8853 56.3426 56.8704 56.2687 56.796L55.245 55.7765C54.8286 55.3619 54.1814 55.29 53.6842 55.6025C52.6484 56.2541 51.5169 56.7225 50.321 56.9946C49.7474 57.1254 49.3402 57.6354 49.3402 58.2239V59.6753C49.3402 59.8373 49.1994 59.9795 49.0389 59.9795H46.7542C46.5936 59.9795 46.4528 59.8374 46.4528 59.6753V58.2203C46.4528 57.6313 46.0447 57.1206 45.4702 56.9908C44.2896 56.7238 43.1601 56.2561 42.1134 55.6011C41.9071 55.472 41.6754 55.409 41.445 55.409C41.1194 55.409 40.7966 55.5349 40.5535 55.7781L39.5336 56.7975C39.4573 56.8738 39.3661 56.8853 39.3181 56.8853C39.318 56.8853 39.3179 56.8853 39.3177 56.8853C39.2606 56.8853 39.1779 56.8704 39.1055 56.7976L37.4904 55.1833C37.3773 55.0703 37.3785 54.87 37.4889 54.759L38.5125 53.7395C38.9308 53.323 39.0039 52.6723 38.6888 52.1733C38.0376 51.1423 37.5694 50.0163 37.2969 48.8265C37.1656 48.2536 36.6559 47.8474 36.068 47.8474H34.6193C34.4559 47.8474 34.3177 47.7098 34.3177 47.5469V45.2635C34.3177 45.1006 34.4559 44.9629 34.6193 44.9629H36.0644C36.6528 44.9629 37.163 44.5558 37.2936 43.9821C37.5626 42.8 38.0249 41.6786 38.6675 40.6489C38.9777 40.1518 38.9045 39.5064 38.4906 39.0914L37.4594 38.0571C37.3894 37.9876 37.3746 37.9053 37.3745 37.8485C37.3745 37.801 37.3858 37.71 37.462 37.6339L39.0735 36.0231C39.1499 35.9469 39.241 35.9354 39.289 35.9354H39.2894C39.3465 35.9355 39.4292 35.9503 39.5031 36.0246L40.5196 37.0371C40.9373 37.453 41.5869 37.5243 42.0841 37.2088C43.1141 36.5558 44.2423 36.0828 45.437 35.8031C46.007 35.6698 46.4101 35.1613 46.4101 34.5758V33.135C46.4101 32.9701 46.5481 32.8308 46.7115 32.8308H48.9926C49.158 32.8308 49.2977 32.9701 49.2977 33.135V34.5545C49.2977 35.1451 49.7077 35.6565 50.2844 35.7849C51.4837 36.052 52.628 36.5238 53.6854 37.1871C54.1823 37.4986 54.8289 37.4266 55.2449 37.0124L56.2728 35.9886C56.3425 35.9185 56.4251 35.9038 56.4823 35.9036H56.4826C56.5306 35.9036 56.6218 35.9151 56.698 35.9914L58.3096 37.602C58.3859 37.6783 58.3971 37.7693 58.3971 37.8168C58.397 37.8735 58.3822 37.9559 58.3081 38.0295L57.288 39.0526C56.8726 39.4693 56.8006 40.1178 57.1145 40.6153C57.7671 41.6499 58.2366 42.7829 58.5101 43.9826C58.6409 44.5561 59.1509 44.963 59.7393 44.963H61.1738C61.3363 44.963 61.4789 45.1036 61.4789 45.2636V47.5466Z" fill="black"/>
<path d="M47.8984 38.7065C43.6506 38.7065 40.1949 42.1608 40.1949 46.4067C40.1949 50.6505 43.6506 54.1033 47.8984 54.1033C52.1443 54.1033 55.5984 50.6507 55.5984 46.4067C55.5984 42.1609 52.1443 38.7065 47.8984 38.7065ZM47.8984 51.5822C45.0409 51.5822 42.716 49.2604 42.716 46.4067C42.716 43.5509 45.0409 41.2277 47.8984 41.2277C50.754 41.2277 53.0773 43.5509 53.0773 46.4067C53.0773 49.2604 50.7539 51.5822 47.8984 51.5822Z" fill="black"/>
<path d="M18.9317 47.8473H18.907C18.2109 47.8473 17.6465 48.4117 17.6465 49.1078C17.6465 49.8039 18.2109 50.3683 18.907 50.3683H18.9317C19.6279 50.3683 20.1922 49.8039 20.1922 49.1078C20.1922 48.4117 19.6279 47.8473 18.9317 47.8473Z" fill="black"/>
</svg>
