<svg width="112" height="112" viewBox="0 0 112 112" fill="none" xmlns="http://www.w3.org/2000/svg">
<path d="M19.4296 1.75708H76.9974V92.3956H1.75688V19.4298L19.4296 1.75708Z" fill="#E1E6E7"/>
<path d="M76.9973 94.1451H1.75687C0.707007 94.1451 0.00709534 93.4452 0.00709534 92.3954V19.4296C0.00709534 18.9047 0.182073 18.5547 0.532029 18.2048L18.2048 0.532014C18.5547 0.182058 18.9047 0.00708008 19.4296 0.00708008H76.9973C78.0472 0.00708008 78.7471 0.706991 78.7471 1.75686V92.3954C78.7471 93.4452 77.8722 94.1451 76.9973 94.1451ZM3.50665 90.6456H75.2476V3.50664H20.1295L3.50665 20.1295V90.6456Z" fill="#183651"/>
<path d="M69.9982 85.3964V8.7561H22.2293L8.75598 22.2294V85.3964H69.9982Z" fill="white"/>
<path d="M19.4296 19.4298H1.75688L19.4296 1.75708V19.4298Z" fill="#F06151"/>
<path d="M1.75687 21.1794C1.05696 21.1794 0.357046 20.8295 0.182068 20.1295C-0.167888 19.4296 0.00708976 18.7297 0.532023 18.2048L18.2048 0.532023C18.7297 0.00708976 19.4296 -0.167888 20.1295 0.182068C20.8295 0.532023 21.1794 1.05696 21.1794 1.75687V19.4296C21.1794 20.4795 20.4795 21.1794 19.4296 21.1794H1.75687ZM17.6799 5.95634L5.95634 17.6799H17.6799V5.95634Z" fill="#183651"/>
<path d="M92.5704 29.0537H52.5004V102.194H110.243V46.7265L92.5704 29.0537Z" fill="#FBBD5E"/>
<path d="M110.243 103.944H52.5004C51.4506 103.944 50.7507 103.244 50.7507 102.194V29.0532C50.7507 28.0034 51.4506 27.3035 52.5004 27.3035H92.5704C93.0953 27.3035 93.4453 27.4784 93.7952 27.8284L111.468 45.5012C111.818 45.8511 111.993 46.2011 111.993 46.726V102.194C111.993 103.244 111.293 103.944 110.243 103.944ZM54.2502 100.444H108.493V47.4259L91.8705 30.803H54.2502V100.444Z" fill="#183651"/>
<path d="M59.4996 95.195V36.0525H89.7707L103.244 49.7008V95.195H59.4996Z" fill="white"/>
<path d="M92.5704 46.7265H110.243L92.5704 29.0537V46.7265Z" fill="#4FBF9F"/>
<path d="M110.243 48.476H92.5704C91.5205 48.476 90.8206 47.7761 90.8206 46.7263V29.0535C90.8206 28.3536 91.1705 27.6537 91.8705 27.4787C92.5704 27.1287 93.2703 27.3037 93.7952 27.8287L111.468 45.5014C111.993 46.0263 112.168 46.7263 111.818 47.4262C111.643 48.1261 110.943 48.476 110.243 48.476ZM94.3201 44.9765H106.044L94.3201 33.253V44.9765Z" fill="#183651"/>
<path d="M64.9239 43.2266H68.4234V46.7261H64.9239V43.2266Z" fill="#183651"/>
<path d="M73.6727 43.2266H77.1723V46.7261H73.6727V43.2266Z" fill="#183651"/>
<path d="M82.2467 43.2266H85.7462V46.7261H82.2467V43.2266Z" fill="#183651"/>
<path d="M64.9239 53.7253H95.195V57.2249H64.9239V53.7253Z" fill="#183651"/>
<path d="M64.9239 64.2241H95.195V67.7237H64.9239V64.2241Z" fill="#183651"/>
<path d="M64.9239 74.7224H95.195V78.222H64.9239V74.7224Z" fill="#183651"/>
<path d="M64.9239 85.3962H87.146V88.8958H64.9239V85.3962Z" fill="#183651"/>
<path d="M24.329 80.4971V105.344C24.329 107.969 26.6037 110.243 29.2284 110.243C31.8531 110.243 34.1278 107.969 34.1278 105.344V80.4971H24.329Z" fill="white"/>
<path d="M29.2284 111.993C25.5539 111.993 22.5792 109.018 22.5792 105.344V80.4968C22.5792 79.447 23.2792 78.7471 24.329 78.7471H34.1278C35.1776 78.7471 35.8776 79.447 35.8776 80.4968V105.344C35.8776 109.018 32.9029 111.993 29.2284 111.993ZM26.0788 82.2466V105.344C26.0788 107.093 27.4786 108.493 29.2284 108.493C30.9782 108.493 32.378 107.093 32.378 105.344V82.2466H26.0788Z" fill="#183651"/>
<path d="M29.2284 85.9213C39.0854 85.9213 47.0761 77.9306 47.0761 68.0736C47.0761 58.2165 39.0854 50.2258 29.2284 50.2258C19.3714 50.2258 11.3807 58.2165 11.3807 68.0736C11.3807 77.9306 19.3714 85.9213 29.2284 85.9213Z" fill="#2CA0DA"/>
<path d="M29.2284 87.6709C18.3798 87.6709 9.63087 78.922 9.63087 68.0733C9.63087 57.2247 18.3798 48.4758 29.2284 48.4758C40.077 48.4758 48.8259 57.2247 48.8259 68.0733C48.8259 78.922 39.902 87.6709 29.2284 87.6709ZM29.2284 51.8004C20.3045 51.8004 13.1304 58.9745 13.1304 67.8984C13.1304 76.8222 20.3045 83.9963 29.2284 83.9963C38.1523 83.9963 45.3264 76.8222 45.3264 67.8984C45.3264 59.1495 37.9773 51.8004 29.2284 51.8004Z" fill="#183651"/>
<path d="M29.2284 79.972C22.5792 79.972 17.3299 74.5477 17.3299 68.0735C17.3299 61.5994 22.7542 56.175 29.2284 56.175C35.8775 56.175 41.1269 61.5994 41.1269 68.0735C41.1269 74.5477 35.7026 79.972 29.2284 79.972Z" fill="white"/>
<path d="M20.4795 66.4988H23.979V69.6484H20.4795V66.4988Z" fill="#183651"/>
<path d="M34.3027 66.4988H37.8023V69.6484H34.3027V66.4988Z" fill="#183651"/>
<path d="M27.6536 59.3245H30.8032V62.824H27.6536V59.3245Z" fill="#183651"/>
<path d="M27.6536 73.1479H30.8032V76.6475H27.6536V73.1479Z" fill="#183651"/>
<path d="M29.2284 11.9058H63.3491V15.4053H29.2284V11.9058Z" fill="#183651"/>
<path d="M29.2284 20.6545H41.1269V24.1541H29.2284V20.6545Z" fill="#183651"/>
<path d="M29.2284 29.2283H41.1269V32.7278H29.2284V29.2283Z" fill="#183651"/>
<path d="M29.2284 37.9771H41.1269V41.4766H29.2284V37.9771Z" fill="#183651"/>
</svg>
