<svg width="102" height="111" viewBox="0 0 102 111" fill="none" xmlns="http://www.w3.org/2000/svg">
<path d="M70.5076 109.266H8.22896C4.63686 109.266 1.72507 106.354 1.72507 102.762V16.8337H77.0118V102.762C77.0115 106.354 74.0997 109.266 70.5076 109.266Z" fill="#EEF5FF"/>
<path d="M70.5079 105.363H8.22896C4.63686 105.363 1.72507 102.451 1.72507 98.8594V102.762C1.72507 106.354 4.63686 109.266 8.22896 109.266H70.5079C74.0997 109.266 77.0118 106.354 77.0118 102.762V98.8594C77.0118 102.451 74.0997 105.363 70.5079 105.363Z" fill="#DFE9FB"/>
<path d="M77.0115 16.8336H1.72505V8.23827C1.72505 4.64617 4.63685 1.73438 8.22895 1.73438H70.5078C74.1 1.73438 77.0117 4.64617 77.0117 8.23827V16.8336H77.0115Z" fill="#FF7E92"/>
<path d="M1.72507 12.9312H77.0118V16.8335H1.72507V12.9312Z" fill="#FF5F7A"/>
<path d="M22.368 42.222H17.0708C15.2749 42.222 13.8188 40.766 13.8188 38.97V33.6728C13.8188 31.8769 15.2749 30.4209 17.0708 30.4209H22.368C24.1639 30.4209 25.6199 31.8769 25.6199 33.6728V38.97C25.6197 40.766 24.1639 42.222 22.368 42.222Z" fill="#BBF39B"/>
<path d="M22.368 38.3196H17.0706C15.2746 38.3196 13.8186 36.8636 13.8186 35.0676V38.97C13.8186 40.7659 15.2746 42.2219 17.0706 42.2219H22.368C24.1639 42.2219 25.6199 40.7659 25.6199 38.97V35.0676C25.6199 36.8636 24.1639 38.3196 22.368 38.3196Z" fill="#9AE59C"/>
<path d="M22.368 60.5411H17.0708C15.2749 60.5411 13.8188 59.0851 13.8188 57.2891V51.9919C13.8188 50.196 15.2749 48.74 17.0708 48.74H22.368C24.1639 48.74 25.6199 50.196 25.6199 51.9919V57.2891C25.6197 59.0853 24.1639 60.5411 22.368 60.5411Z" fill="#BBF39B"/>
<path d="M22.368 78.8609H17.0708C15.2749 78.8609 13.8188 77.4049 13.8188 75.609V70.3118C13.8188 68.5158 15.2749 67.0598 17.0708 67.0598H22.368C24.1639 67.0598 25.6199 68.5158 25.6199 70.3118V75.609C25.6197 77.4049 24.1639 78.8609 22.368 78.8609Z" fill="#BBF39B"/>
<path d="M22.368 97.18H17.0708C15.2749 97.18 13.8188 95.724 13.8188 93.9281V88.6309C13.8188 86.8349 15.2749 85.3789 17.0708 85.3789H22.368C24.1639 85.3789 25.6199 86.8349 25.6199 88.6309V93.9281C25.6197 95.7242 24.1639 97.18 22.368 97.18Z" fill="#BBF39B"/>
<path d="M22.368 56.6387H17.0706C15.2746 56.6387 13.8186 55.1827 13.8186 53.3867V57.2891C13.8186 59.085 15.2746 60.541 17.0706 60.541H22.368C24.1639 60.541 25.6199 59.085 25.6199 57.2891V53.3867C25.6199 55.1829 24.1639 56.6387 22.368 56.6387Z" fill="#9AE59C"/>
<path d="M22.368 74.9585H17.0706C15.2746 74.9585 13.8186 73.5025 13.8186 71.7065V75.6089C13.8186 77.4048 15.2746 78.8608 17.0706 78.8608H22.368C24.1639 78.8608 25.6199 77.4048 25.6199 75.6089V71.7065C25.6199 73.5025 24.1639 74.9585 22.368 74.9585Z" fill="#9AE59C"/>
<path d="M22.368 93.2776H17.0706C15.2746 93.2776 13.8186 91.8216 13.8186 90.0256V93.928C13.8186 95.7239 15.2746 97.1799 17.0706 97.1799H22.368C24.1639 97.1799 25.6199 95.7239 25.6199 93.928V90.0256C25.6199 91.8218 24.1639 93.2776 22.368 93.2776Z" fill="#9AE59C"/>
<path d="M85.684 22.2913H99.51V95.3757H85.684V22.2913Z" fill="#FFE17D"/>
<path d="M85.684 14.26H99.51V22.2912H85.684V14.26Z" fill="#6C5E69"/>
<path d="M85.684 18.3889H99.51V22.2913H85.684V18.3889Z" fill="#574D56"/>
<path d="M99.5098 14.26H85.6838V4.98632C85.6838 3.19038 87.1398 1.73438 88.9358 1.73438H96.2579C98.0538 1.73438 99.5098 3.19038 99.5098 4.98632V14.26Z" fill="#FF7E92"/>
<path d="M85.684 10.3577H99.51V14.26H85.684V10.3577Z" fill="#FF5F7A"/>
<path d="M92.597 109.265L85.684 95.3755H99.5098L92.597 109.265Z" fill="#FFDCD0"/>
<path d="M94.9161 104.606H90.2777L92.597 109.266L94.9161 104.606Z" fill="#6C5E69"/>
<path d="M45.4041 107.742H8.14591C5.45091 107.742 3.25845 105.549 3.25845 102.854V18.3872H16.4477C17.3476 18.3872 18.0769 17.6579 18.0769 16.7579C18.0769 15.858 17.3476 15.1287 16.4477 15.1287H3.25845V8.14569C3.25845 5.45091 5.45091 3.25823 8.14591 3.25823H55.5758C56.4757 3.25823 57.205 2.52893 57.205 1.62901C57.205 0.729086 56.4757 0 55.5758 0H8.14591C3.65432 0 0 3.6541 0 8.14569V102.854C0 107.345 3.6541 111 8.14569 111H45.4039C46.3038 111 47.0331 110.27 47.0331 109.37C47.0331 108.47 46.304 107.742 45.4041 107.742Z" fill="black"/>
<path d="M70.5466 0H62.0924C61.1925 0 60.4632 0.729303 60.4632 1.62923C60.4632 2.52915 61.1925 3.25845 62.0924 3.25845H70.5466C73.2416 3.25845 75.4341 5.45113 75.4341 8.14591V15.1289H22.9642C22.0642 15.1289 21.3349 15.8582 21.3349 16.7582C21.3349 17.6581 22.0642 18.3874 22.9642 18.3874H75.4341V102.854C75.4341 105.549 73.2416 107.742 70.5466 107.742H51.9208C51.0209 107.742 50.2916 108.471 50.2916 109.371C50.2916 110.271 51.0209 111 51.9208 111H70.5466C75.0382 111 78.6923 107.346 78.6923 102.854V8.14569C78.6923 3.6541 75.0382 0 70.5466 0Z" fill="black"/>
<path d="M27.9036 30.2167C27.2997 29.627 26.3546 29.6021 25.7216 30.1328C24.8403 29.2736 23.6375 28.7429 22.3127 28.7429H17.0051C14.3101 28.7429 12.1176 30.9354 12.1176 33.6304V38.9378C12.1176 41.6326 14.3101 43.8252 17.0051 43.8252H22.3127C25.0077 43.8252 27.2001 41.6328 27.2001 38.9378V33.6304C27.2001 33.5142 27.1947 33.3995 27.1867 33.2855L27.9327 32.5204C28.5608 31.8761 28.548 30.8448 27.9036 30.2167ZM23.9417 38.9378C23.9417 39.8362 23.2109 40.567 22.3125 40.567H17.0049C16.1065 40.567 15.3756 39.8362 15.3756 38.9378V33.6304C15.3756 32.732 16.1065 32.0012 17.0049 32.0012H22.3125C22.7508 32.0012 23.1484 32.1761 23.4418 32.4586L20.2854 35.6951L18.7533 34.2051C18.1077 33.5779 17.0768 33.5924 16.4496 34.2374C15.8225 34.8824 15.8368 35.9139 16.4819 36.5411L19.1804 39.1652C19.4969 39.473 19.9067 39.6263 20.316 39.6263C20.7398 39.6263 21.1632 39.462 21.4826 39.1346L23.9419 36.6126L23.9417 38.9378Z" fill="black"/>
<path d="M34.9127 37.913H64.9459C65.8458 37.913 66.5751 37.1837 66.5751 36.2838C66.5751 35.3838 65.8458 34.6545 64.9459 34.6545H34.9127C34.0128 34.6545 33.2834 35.3838 33.2834 36.2838C33.2834 37.1837 34.0128 37.913 34.9127 37.913Z" fill="black"/>
<path d="M27.1999 51.9854C27.1999 49.2904 25.0075 47.0979 22.3125 47.0979H17.0049C14.3099 47.0979 12.1174 49.2904 12.1174 51.9854V57.293C12.1174 59.988 14.3099 62.1804 17.0049 62.1804H22.3125C25.0075 62.1804 27.1999 59.988 27.1999 57.293V51.9854ZM23.9417 57.293C23.9417 58.1914 23.2109 58.9222 22.3125 58.9222H17.0049C16.1065 58.9222 15.3757 58.1914 15.3757 57.293V51.9854C15.3757 51.087 16.1065 50.3561 17.0049 50.3561H22.3125C23.2109 50.3561 23.9417 51.087 23.9417 51.9854V57.293Z" fill="black"/>
<path d="M34.9127 56.2682H64.9459C65.8458 56.2682 66.5751 55.5389 66.5751 54.639C66.5751 53.7391 65.8458 53.0098 64.9459 53.0098H34.9127C34.0128 53.0098 33.2834 53.7391 33.2834 54.639C33.2834 55.5389 34.0128 56.2682 34.9127 56.2682Z" fill="black"/>
<path d="M27.1999 70.3411C27.1999 67.6463 25.0075 65.4536 22.3125 65.4536H17.0049C14.3099 65.4536 12.1174 67.6461 12.1174 70.3411V75.6485C12.1174 78.3435 14.3099 80.5359 17.0049 80.5359H22.3125C25.0075 80.5359 27.1999 78.3435 27.1999 75.6485V70.3411ZM23.9417 75.6485C23.9417 76.5469 23.2109 77.2777 22.3125 77.2777H17.0049C16.1065 77.2777 15.3757 76.5469 15.3757 75.6485V70.3411C15.3757 69.4427 16.1065 68.7118 17.0049 68.7118H22.3125C23.2109 68.7118 23.9417 69.4427 23.9417 70.3411V75.6485Z" fill="black"/>
<path d="M34.9127 74.6234H64.9459C65.8458 74.6234 66.5751 73.8941 66.5751 72.9942C66.5751 72.0943 65.8458 71.365 64.9459 71.365H34.9127C34.0128 71.365 33.2834 72.0943 33.2834 72.9942C33.2834 73.8941 34.0128 74.6234 34.9127 74.6234Z" fill="black"/>
<path d="M22.3125 83.8081H17.0049C14.3099 83.8081 12.1174 86.0006 12.1174 88.6956V94.0032C12.1174 96.6982 14.3099 98.8906 17.0049 98.8906H22.3125C25.0075 98.8906 27.1999 96.6982 27.1999 94.0032V88.6956C27.1999 86.0008 25.0075 83.8081 22.3125 83.8081ZM23.9417 94.0034C23.9417 94.9018 23.2109 95.6326 22.3125 95.6326H17.0049C16.1065 95.6326 15.3757 94.9018 15.3757 94.0034V88.6956C15.3757 87.7972 16.1065 87.0663 17.0049 87.0663H22.3125C23.2109 87.0663 23.9417 87.7972 23.9417 88.6956V94.0034Z" fill="black"/>
<path d="M34.9127 92.9789H64.9459C65.8458 92.9789 66.5751 92.2496 66.5751 91.3497C66.5751 90.4498 65.8458 89.7205 64.9459 89.7205H34.9127C34.0128 89.7205 33.2834 90.4498 33.2834 91.3497C33.2834 92.2496 34.0128 92.9789 34.9127 92.9789Z" fill="black"/>
<path d="M96.3472 0H89.011C86.316 0 84.1235 2.19246 84.1235 4.88746V95.4537C84.1251 95.7072 84.1849 95.9539 84.2942 96.1796L91.2206 110.097C91.4961 110.65 92.0611 111 92.6792 111C93.2973 111 93.8623 110.65 94.1378 110.097L101.064 96.1796C101.173 95.9539 101.233 95.7072 101.235 95.4537V4.88746C101.235 2.19246 99.0422 0 96.3472 0ZM97.9764 20.5972H87.3818V15.8086H97.9764V20.5972ZM87.3818 23.8554H97.9764V93.8245H87.3818V23.8554ZM87.3818 4.88746C87.3818 3.98905 88.1126 3.25823 89.011 3.25823H96.3472C97.2456 3.25823 97.9764 3.98905 97.9764 4.88746V12.5501H87.3818V4.88746ZM93.9938 103.072H91.3643L88.3834 97.0828H96.975L93.9938 103.072Z" fill="black"/>
</svg>
