<svg width="624" height="562" viewBox="0 0 624 562" fill="none" xmlns="http://www.w3.org/2000/svg">
<path opacity="0.1" d="M133.414 448.97L92.9625 497.178L30.9875 486.251L9.46381 427.115L49.9151 378.907L111.89 389.834L133.414 448.97Z" stroke="#B4278E" stroke-width="4"/>
<path opacity="0.228571" d="M262.668 458.18L228.528 529.072L150.064 534.953L105.739 469.94L139.879 399.048L218.343 393.168L262.668 458.18Z" stroke="#AB44A3" stroke-width="5.71429"/>
<path opacity="0.357143" d="M376.314 423.727L357.601 516.292L268.081 546.37L197.273 483.881L215.986 391.316L305.506 361.239L376.314 423.727Z" stroke="#A357B6" stroke-width="7.42857"/>
<path opacity="0.485714" d="M461.656 354.593L467.148 464.648L374.585 524.431L276.529 474.161L271.036 364.106L363.6 304.323L461.656 354.593Z" stroke="#9967C6" stroke-width="9.14286"/>
<path opacity="0.614286" d="M509.614 263.093L546.737 383.443L461.073 475.767L338.286 447.741L301.163 327.392L386.827 235.068L509.614 263.093Z" stroke="#8F75D6" stroke-width="10.8571"/>
<path opacity="0.742857" d="M515.522 163.613L589.409 284.523L521.641 408.965L379.987 412.498L306.101 291.588L373.868 167.146L515.522 163.613Z" stroke="#8481E4" stroke-width="12.5714"/>
<path opacity="0.871429" d="M479.521 71.1842L592.236 181.123L553.383 333.705L401.817 376.349L289.102 266.411L327.954 113.828L479.521 71.1842Z" stroke="#788DF2" stroke-width="14.2857"/>
<path d="M406.518 0L556.518 86.6024V259.807L406.518 346.41L256.518 259.807V86.6024L406.518 0Z" stroke="#6B97FF" stroke-width="16"/>
</svg>
