<svg width="568" height="618" viewBox="0 0 568 618" fill="none" xmlns="http://www.w3.org/2000/svg">
<path d="M1 600.098C13.5396 602.563 25.9949 605.278 38.6469 607.415C48.6561 609.105 58.8902 610.19 69.0775 611.347C74.1945 611.932 79.4147 612.287 84.5974 612.379C108.402 612.793 132.207 613.352 156.002 613.286C169.179 613.253 182.356 612.162 195.514 611.406C204.708 610.88 213.93 610.347 223.048 609.388C234.604 608.171 246.085 606.541 257.575 605.042C278.886 602.267 299.701 598.211 320.151 593.201C337.817 588.875 354.995 583.721 371.556 577.6C387.919 571.545 403.682 564.773 418.396 556.923C427.506 552.065 436.034 546.647 444.45 541.197C452.145 536.214 459.614 531.026 466.662 525.596C474.365 519.659 481.797 513.519 488.761 507.148C498.423 498.305 508.198 489.469 516.689 480.081C526.164 469.614 534.786 458.72 542.818 447.662C550.746 436.749 556.004 425.033 558.862 412.949C560.493 406.085 561.468 398.998 560.999 392.075C559.931 376.461 551.609 362.615 538.207 350.097C527.279 339.893 513.812 331.708 498.807 324.766C482.528 317.231 464.637 311.972 445.809 308.507C433.091 306.166 420.158 304.365 407.263 302.537C395.913 300.927 384.451 299.704 373.102 298.132C358.276 296.075 343.402 294.122 328.726 291.604C309.739 288.343 291.735 283.235 274.622 276.489C257.153 269.599 242.102 260.697 228.681 250.408C216.769 241.276 206.854 231.086 198.157 220.297C192.477 213.256 187.398 206.044 184.98 198.122C183.396 192.928 182.262 187.622 181.737 182.33C180.884 173.704 180.959 165.032 180.153 156.4C179.282 147.018 178.569 137.584 176.489 128.32C174.296 118.584 171.156 108.906 167.37 99.406C161.494 84.712 154.202 70.3205 144.343 56.6653C135.637 44.6078 124.062 33.9769 109.48 25.1539C93.585 15.5289 75.0943 9.3226 54.4386 6.38381C43.3704 4.80594 32.1897 4.12877 20.934 4.47722C14.2706 4.68102 7.63531 5.41079 0.981256 5.90388V1.97234C3.5679 1.65019 6.14517 1.07164 8.74119 1.03877C18.8347 0.927003 28.9376 0.920429 39.0405 0.999322C52.6673 1.11109 65.6474 3.64883 78.2151 6.99524C89.8456 10.0918 100.361 14.6939 110.22 20.0784C122.807 26.9422 132.806 35.3575 141.532 44.588C149.741 53.2795 155.814 62.727 161.194 72.4112C168.138 84.9158 174.333 97.598 178.307 110.747C180.425 117.749 182.431 124.79 183.621 131.89C185.074 140.51 185.711 149.194 186.517 157.86C186.957 162.666 186.854 167.498 187.285 172.304C188.269 183.342 188.682 194.525 195.055 204.867C199.047 211.343 203.583 217.733 208.953 223.683C215.57 231.02 222.87 238.108 230.677 244.846C239.393 252.368 249.543 259.027 260.995 264.491C270.273 268.922 279.795 273.222 289.804 276.765C307.133 282.899 325.633 286.956 344.658 289.665C359.71 291.808 374.836 293.688 389.943 295.608C414.957 298.79 440.027 301.742 464.056 307.869C482.641 312.609 499.932 319.026 515.546 327.501C527.701 334.095 538.394 341.807 547.035 350.735C556.323 360.327 563.136 370.761 565.976 382.253C567.822 389.721 567.803 397.256 566.96 404.869C565.713 416.164 561.599 426.933 556.126 437.445C550.643 447.971 543.877 458.142 535.376 467.662C527.214 476.807 519.144 486.024 510.288 494.841C502.247 502.835 493.54 510.54 484.496 517.989C474.778 525.99 464.74 533.853 454.066 541.237C436.775 553.196 417.562 563.544 396.841 572.465C381.743 578.967 366.12 584.792 349.663 589.395C334.902 593.523 320.104 597.731 304.903 600.926C287.836 604.509 270.386 607.303 252.935 609.848C239.346 611.827 225.523 613.069 211.746 614.318C201.446 615.252 191.053 615.83 180.687 616.297C169.432 616.803 158.148 617.007 146.874 617.316C139.657 617.514 132.432 617.862 125.225 617.763C113.388 617.612 101.523 617.441 89.7332 616.764C62.086 615.18 34.8982 611.794 8.48815 605.653C6.0046 605.075 3.48355 604.568 0.981256 604.023C0.981256 602.708 0.981256 601.393 0.981256 600.078L1 600.098Z" fill="url(#paint0_linear_1_42)"/>
<path d="M1 586.797C17.5133 589.421 33.9422 592.34 50.568 594.549C59.3869 595.719 68.5246 595.798 77.531 596.127C86.6123 596.462 95.7124 596.58 104.803 596.639C117.015 596.718 129.236 596.909 141.438 596.58C153.687 596.245 165.955 595.607 178.138 594.615C198.428 592.958 218.559 590.644 238.512 587.409C263.357 583.385 287.462 577.975 310.854 570.881C335.568 563.392 358.594 553.945 379.719 542.262C386.71 538.396 393.458 534.287 399.962 530.02C407.103 525.346 414.254 520.619 420.655 515.458C430.58 507.45 440.364 499.305 449.314 490.751C459.239 481.264 468.723 471.501 477.355 461.416C490.232 446.367 500.785 430.516 504.946 413.001C506.38 406.953 507.72 400.78 507.626 394.678C507.439 382.364 502.322 370.918 493.062 360.373C486.568 352.983 478.808 346.33 469.595 340.597C456.99 332.747 442.988 326.37 427.45 321.603C415.116 317.823 402.455 314.838 389.362 312.807C376.616 310.828 363.758 309.204 350.947 307.435C336.327 305.417 321.66 303.576 307.105 301.367C292.785 299.191 278.802 296.193 265.222 292.235C251.249 288.159 237.931 283.261 226.141 276.647C217.538 271.821 209.244 266.614 201.718 260.98C190.772 252.782 181.69 243.538 173.724 233.755C167.829 226.517 162.637 219.094 160.313 210.883C158.879 205.827 157.736 200.692 157.173 195.558C156.499 189.45 156.836 183.296 156.292 177.175C155.627 169.733 154.624 162.297 153.537 154.875C151.241 139.287 145.768 124.192 138.064 109.517C133.322 100.484 128.58 91.3785 122.366 82.8251C117.408 76.0074 110.604 69.7814 103.969 63.6408C94.4004 54.7785 81.8139 48.2697 67.8217 43.2337C57.7188 39.5914 46.9317 37.0011 35.5823 36.0084C27.1007 35.2654 18.5442 34.8907 10.0064 34.5291C7.0355 34.4042 4.01775 34.8118 1.01874 34.9762V30.545C12.8461 29.4996 24.5328 30.1965 36.2852 31.4325C48.1126 32.6817 59.2464 35.318 69.846 38.9734C83.6414 43.7334 95.8811 50.1369 106.106 58.2038C118.402 67.9077 127.746 78.9002 134.887 90.9315C143.275 105.053 150.444 119.405 155.083 134.343C157.061 140.7 158.767 147.137 159.76 153.599C161.147 162.639 161.803 171.732 162.665 180.804C163.237 186.82 163.396 192.855 164.146 198.858C165.692 211.244 171.081 222.776 180.884 233.196C186.695 239.376 192.29 245.694 198.813 251.493C207.069 258.83 216.413 265.477 227.106 271.223C237.566 276.844 248.493 281.854 260.424 285.733C276.253 290.887 292.785 294.628 309.889 297.094C322.456 298.908 335.015 300.723 347.601 302.465C359.85 304.161 372.137 305.746 384.395 307.429C398.809 309.408 412.82 312.373 426.363 316.337C440.083 320.354 453.119 325.311 464.778 331.807C485.902 343.575 502.481 357.756 510.035 376.296C511.816 380.675 512.828 385.277 513.306 389.826C513.859 395.073 514.14 400.431 513.249 405.631C512.162 411.989 510.007 418.287 507.814 424.52C504.159 434.901 497.945 444.612 490.954 454.066C481.507 466.833 470.401 478.891 458.021 490.344C449.595 498.141 440.814 505.741 432.145 513.407C430.777 514.616 429.202 515.721 427.665 516.832C421.18 521.5 414.713 526.181 408.144 530.783C404.854 533.084 401.358 535.247 397.919 537.45C386.41 544.833 374.03 551.433 360.787 557.18C350.356 561.709 339.822 566.239 328.735 569.881C314.246 574.648 299.336 578.836 284.322 582.748C263.582 588.145 242.036 591.636 220.349 594.582C210.659 595.897 200.837 596.81 191.015 597.586C178.391 598.586 165.739 599.631 153.068 600.012C132.207 600.637 111.317 600.952 90.4454 600.985C80.1645 600.998 69.8272 600.347 59.5931 599.532C41.4585 598.092 23.5675 595.666 6.05145 592.004C4.42074 591.663 2.71506 591.479 1.04686 591.222C1.04686 589.743 1.04686 588.264 1.04686 586.791L1 586.797Z" fill="url(#paint1_linear_1_42)"/>
<path d="M1 573.491C9.3035 574.674 17.5789 575.956 25.9105 577.008C32.1241 577.797 38.4033 578.356 44.6731 578.902C65.9098 580.729 87.259 580.604 108.571 580.302C121.167 580.124 133.762 579.237 146.321 578.382C157.895 577.6 169.526 576.857 180.94 575.351C196.563 573.294 212.111 570.841 227.491 568.008C251.408 563.603 274.191 557.055 296.009 548.876C310.113 543.59 323.665 537.68 335.989 530.52C345.624 524.925 355.455 519.396 364.124 513.111C374.564 505.537 384.208 497.391 393.57 489.134C402.08 481.626 410.121 473.828 417.675 465.834C430.739 452.021 441.76 437.419 448.152 421.364C450.42 415.664 451.667 409.734 452.866 403.856C453.625 400.162 453.785 396.368 453.597 392.627C453.091 382.7 448.761 373.502 441.798 364.903C436.465 358.315 429.839 352.359 422.033 347.165C404.826 335.725 384.836 327.382 362.034 322.793C347.432 319.854 332.559 317.501 317.658 315.364C293.103 311.84 268.212 309.421 244.426 303.543C225.204 298.796 207.444 292.294 191.596 283.195C179.572 276.292 169.094 268.449 160.557 259.402C154.287 252.762 148.27 245.984 142.853 238.988C138.186 232.96 135.562 226.306 134.606 219.462C133.631 212.513 133.219 205.531 132.422 198.569C131.082 186.965 130.22 175.348 126.977 163.855C122.975 149.694 116.902 136.032 109.283 122.66C104.203 113.751 98.449 105.139 90.4548 97.2758C81.1391 88.1176 69.7991 80.5701 55.9568 74.8832C43.3141 69.6828 29.6686 66.5928 15.1047 65.5014C10.4 65.1727 5.70469 64.8703 1 64.5415C1 63.0623 1 61.583 1 60.1104C20.8872 60.6758 39.9684 63.3647 57.5219 70.3337C69.8554 75.2382 80.127 81.7535 89.4051 89.2221C97.4275 95.6782 103.697 102.91 108.861 110.53C116.631 121.989 123.125 133.856 127.493 146.203C130.576 154.927 133.491 163.691 135.768 172.527C137.202 178.089 137.511 183.809 138.017 189.47C138.664 196.715 138.795 203.979 139.517 211.218C140.454 220.672 143.087 229.916 149.348 238.403C156.124 247.581 164.249 256.141 173.584 264.182C185.402 274.359 199.431 282.669 215.382 289.415C229.515 295.391 244.819 299.526 260.723 302.445C273.001 304.707 285.437 306.574 297.883 308.369C313.703 310.65 329.701 312.386 345.445 314.904C368.172 318.54 389.643 324.397 408.921 333.878C427.834 343.174 442.894 354.712 452.257 369.636C455.968 375.547 458.377 381.694 459.37 388.176C461.32 400.977 459.014 413.403 452.988 425.454C449.202 433.027 445.191 440.614 440.149 447.8C430.739 461.212 418.724 473.539 405.979 485.518C392.342 498.332 377.741 510.56 360.918 521.355C350.712 527.903 339.954 534.097 328.792 539.83C314.518 547.16 299.036 553.202 282.944 558.396C265.044 564.175 246.656 569.073 227.528 572.518C217.557 574.313 207.613 576.213 197.547 577.712C188.682 579.027 179.694 579.94 170.725 580.861C161.616 581.794 152.459 582.544 143.312 583.313C140.098 583.583 136.855 583.714 133.612 583.826C127.689 584.03 121.757 584.207 115.825 584.326C105.684 584.523 95.5344 584.779 85.3846 584.792C77.1092 584.805 68.8151 584.72 60.5772 584.286C42.2176 583.32 23.9049 581.992 6.07957 578.487C4.43949 578.165 2.68694 578.113 0.990628 577.935C0.990628 576.456 0.990628 574.977 0.990628 573.504L1 573.491Z" fill="url(#paint2_linear_1_42)"/>
<path d="M1 559.698C5.99522 560.217 10.9998 560.75 16.0044 561.249C22.4898 561.893 28.9658 562.939 35.4792 563.064C54.9821 563.452 74.5038 563.721 94.0161 563.537C104.616 563.438 115.243 562.531 125.787 561.631C138.673 560.526 151.56 559.316 164.305 557.64C174.849 556.253 185.261 554.287 195.626 552.301C216.825 548.238 237.059 542.433 256.422 535.155C270.311 529.935 283.825 524.241 295.653 516.898C306.543 510.139 317.592 503.414 327.433 495.938C337.339 488.417 346.036 480.087 354.939 471.942C366.307 461.547 376.138 450.456 384.245 438.642C390.327 429.78 395.463 420.628 397.928 410.937C399.446 404.974 400.44 398.801 400.027 392.778C399.296 381.891 393.973 371.911 384.929 362.95C371.106 349.262 352.877 339.552 331.013 332.905C313.309 327.52 294.622 324.805 275.859 322.195C254.079 319.171 232.13 316.613 211.09 311.393C193.864 307.12 177.951 301.262 163.64 293.175C147.558 284.089 135.252 272.906 124.672 260.625C118.327 253.268 113.05 245.648 111.11 237.082C110.351 233.735 109.677 230.376 109.283 227.003C108.243 218.187 107.455 209.357 106.434 200.541C104.775 186.261 99.7517 172.494 93.0602 159.023C87.2496 147.327 80.8392 135.809 70.8207 125.454C61.0364 115.336 48.6374 107.236 33.1175 101.714C23.0802 98.1371 12.3119 95.8557 1.00937 95.08C1.00937 93.6007 1.00937 92.1215 1.00937 90.6488C9.43471 92.1149 18.01 93.2523 26.2385 95.1326C38.4126 97.9136 48.9373 102.805 58.356 108.899C71.1955 117.203 81.1204 126.966 88.1868 138.13C96.8933 151.883 104.128 166.005 108.477 180.765C110.333 187.07 111.738 193.46 112.685 199.864C113.791 207.378 114.128 214.946 114.897 222.48C116.012 233.315 118.336 243.932 126.077 253.61C132.91 262.15 140.716 270.165 149.854 277.6C160.407 286.187 172.862 293.096 186.676 298.75C199.487 303.99 213.302 307.803 227.716 310.335C239.927 312.478 252.233 314.365 264.538 316.238C280.208 318.625 296.027 320.578 311.585 323.267C330.797 326.593 348.819 332.122 364.367 340.814C377.188 347.987 388.209 356.441 395.932 366.776C401.311 373.969 404.77 381.483 405.997 389.642C407.684 400.826 405.107 411.581 400.58 422.166C392.361 441.43 377.422 458.194 360.778 474.348C346.804 487.918 331.285 500.508 313.956 511.993C301.191 520.455 287.105 527.733 272.063 534.09C249.749 543.511 226.057 550.802 200.996 555.72C186.142 558.639 171.016 560.934 155.88 563.07C145.861 564.484 135.655 565.273 125.478 566.049C116.162 566.759 106.79 567.298 97.4275 567.521C82.2544 567.876 67.0438 568.258 51.88 567.949C40.0246 567.705 28.1973 566.482 16.3699 565.608C11.2247 565.227 6.11706 564.622 0.990628 564.122C0.990628 562.643 0.990628 561.164 0.990628 559.691L1 559.698Z" fill="url(#paint3_linear_1_42)"/>
<path d="M1 545.411C12.6493 546.062 24.2892 546.746 35.9384 547.351C38.6188 547.489 41.3273 547.43 44.017 547.37C59.0402 547.061 74.1008 547.088 89.0771 546.305C111.663 545.122 134.006 542.459 155.899 538.363C171.381 535.464 186.451 531.664 201.137 527.082C218.55 521.645 234.941 514.965 249.712 506.609C260.555 500.475 270.883 493.769 280.376 486.616C297.124 473.986 311.622 460.068 324.078 445.184C333.524 433.895 341.069 421.956 344.574 409.024C348.726 393.719 345.652 379.281 332.831 366.152C323.159 356.244 310.432 348.822 295.709 342.937C278.867 336.212 260.349 332.911 241.605 330.104C227.266 327.954 212.814 326.094 198.588 323.628C178.466 320.144 159.207 315.127 142.056 306.633C129.03 300.184 117.961 292.38 108.646 283.386C100.82 275.825 93.3413 268.021 89.6113 258.929C87.5964 254.018 86.2749 248.903 85.4502 243.821C83.932 234.485 83.5008 225.051 81.7108 215.741C79.2554 202.967 74.2976 190.574 67.578 178.576C63.9792 172.146 60.2398 165.716 55.6944 159.595C48.4968 149.911 38.347 141.884 25.6481 135.46C18.1037 131.647 9.69712 129.195 1 127.111V122.68C15.2172 125.138 27.4944 130.076 38.4501 136.828C51.4489 144.836 60.3335 154.77 67.2406 165.755C74.785 177.774 80.9611 190.094 84.8598 202.934C86.6029 208.674 87.8682 214.512 88.7772 220.35C89.8363 227.122 90.258 233.946 90.9702 240.744C92.2448 252.795 97.718 263.741 107.212 273.905C115.019 282.262 123.678 290.066 134.381 296.574C141.204 300.723 148.692 304.464 156.489 307.652C175.627 315.469 196.826 319.197 218.344 322.28C237.847 325.075 257.546 327.376 276.421 332.043C292.832 336.1 307.92 341.675 320.891 350.025C330.272 356.06 338.22 362.786 343.983 370.701C349.138 377.795 352.09 385.31 352.521 393.39C353.337 408.761 347.254 422.876 338.032 436.571C328.792 450.285 316.692 462.711 303.347 474.552C296.318 480.784 288.708 486.701 281.145 492.631C264.988 505.287 245.878 515.366 224.829 523.67C208.091 530.277 190.509 535.53 172.197 539.586C156.78 542.998 141.147 545.773 125.131 547.37C113.96 548.488 102.76 549.474 91.5513 550.309C84.2975 550.848 76.9874 551.059 69.6867 551.309C62.5921 551.552 55.4789 551.92 48.3937 551.762C34.9357 551.466 21.487 550.862 8.0383 550.303C5.66721 550.204 3.34298 549.685 0.990628 549.356C0.990628 548.041 0.990628 546.726 0.990628 545.411H1Z" fill="url(#paint4_linear_1_42)"/>
<path d="M1 530.139C16.6417 530.303 32.3022 530.737 47.9345 530.533C57.953 530.402 67.981 529.521 77.9339 528.627C88.0556 527.719 98.1304 526.497 108.177 525.195C122.722 523.308 136.874 520.336 150.651 516.589C167.942 511.882 184.258 505.872 199.422 498.312C212.627 491.724 224.417 484.124 235.232 475.676C246.506 466.873 256.722 457.53 265.934 447.636C274.753 438.169 282.307 428.235 287.312 417.433C290.639 410.253 292.766 402.883 292.625 395.329C292.438 385.382 287.621 376.461 279.458 368.354C271.679 360.623 261.642 354.679 250.236 349.762C234.454 342.951 216.91 339.742 199.056 336.942C181.868 334.246 164.68 331.458 147.764 328.04C132.338 324.923 118.252 319.585 105.684 312.524C93.0133 305.404 83.1353 296.555 74.5975 286.923C69.6117 281.295 65.0851 275.477 63.2575 268.942C61.7299 263.492 61.0364 257.923 60.043 252.4C58.8621 245.833 58.3654 239.173 56.4723 232.71C54.0168 224.321 51.0741 215.945 47.2503 207.819C42.4707 197.675 36.7819 187.734 27.7755 178.918C20.5404 171.824 11.7871 165.959 0.990628 161.607C0.990628 159.963 0.990628 158.32 0.990628 156.683C6.39821 159.076 12.3119 161.055 17.1103 163.941C30.3903 171.942 39.5185 182.021 46.2382 193.362C51.8332 202.803 56.9128 212.336 60.296 222.256C62.3766 228.344 63.7449 234.577 64.8789 240.796C66.1628 247.864 66.4346 255.024 67.8873 262.071C69.368 269.264 72.9293 276.022 78.2432 282.367C84.7567 290.164 92.2448 297.416 101.495 303.675C112.432 311.071 125.018 316.751 139.104 320.913C154.943 325.594 171.55 328.138 188.232 330.637C204.801 333.115 221.427 335.548 237.209 340.012C254.322 344.857 268.821 352.214 280.676 362.24C289.776 369.932 295.877 378.551 298.183 388.347C300.282 397.275 298.361 406.085 295.221 414.79C289.954 429.398 279.72 442.317 267.359 454.427C259.664 461.968 251.539 469.325 242.982 476.399C236.272 481.948 228.971 487.194 221.305 492.092C210.921 498.726 199.45 504.4 187.173 509.252C170.116 515.991 152.394 521.664 133.472 525.221C120.332 527.687 107.062 529.955 93.6506 531.493C80.127 533.045 66.3971 533.886 52.7048 534.485C39.7809 535.05 26.8008 534.951 13.8489 535.03C9.56592 535.057 5.27359 534.734 0.981256 534.57C0.981256 533.091 0.981256 531.612 0.981256 530.139H1Z" fill="url(#paint5_linear_1_42)"/>
<path d="M1 513.88C12.2744 513.729 23.5488 513.657 34.8138 513.387C40.2308 513.256 45.6852 512.973 51.0366 512.361C63.1357 510.974 75.2817 509.659 87.2215 507.733C105.047 504.86 122.207 500.449 138.083 494.065C148.111 490.035 157.595 485.294 166.911 480.482C172.581 477.55 177.717 474.045 182.646 470.495C193.377 462.77 202.918 454.362 211.596 445.44C221.137 435.618 229.468 425.408 234.623 414.014C237.95 406.657 239.534 399.103 238.456 391.47C237.312 383.39 232.495 376.204 225.307 369.794C215.41 360.971 202.749 354.627 188.138 350.465C178.335 347.671 167.904 345.909 157.661 343.93C143.453 341.182 129.058 338.888 114.906 335.988C94.241 331.761 76.8749 323.714 62.639 312.419C53.0515 304.812 45.4041 296.311 40.4651 286.739C37.6348 281.256 36.8663 275.47 36.0509 269.678C35.0856 262.874 33.8673 256.036 31.7867 249.363C27.7099 236.286 21.2058 223.742 12.1526 211.948C9.14418 208.036 4.74876 204.643 1 201.021C1 198.884 1 196.754 1 194.617C7.83212 198.411 12.743 203.348 16.8573 208.575C26.6696 221.027 33.483 234.34 38.019 248.173C39.8934 253.886 40.6244 259.784 41.749 265.609C43.0798 272.538 43.4453 279.573 46.9785 286.246C50.568 293.037 56.1349 299.007 62.236 304.753C72.9293 314.825 86.6404 322.34 102.713 327.77C115.89 332.228 129.967 334.752 144.156 337.001C162.909 339.979 181.85 342.615 199.141 348.841C216.469 355.08 229.899 364.245 238.812 376.415C242.486 381.431 244.444 386.848 245.026 392.608C246.281 405.066 241.417 416.486 234.07 427.525C225.86 439.858 215.157 451.127 202.561 461.449C195.017 467.635 187.323 473.796 178.926 479.404C168.157 486.596 155.946 492.52 142.797 497.516C129.639 502.513 116.021 506.753 101.635 509.528C88.6366 512.033 75.4129 514.051 62.1517 515.774C47.8033 517.641 33.2487 518.502 18.6098 518.318C12.743 518.246 6.86681 518.305 1 518.305C1 516.826 1 515.346 1 513.874V513.88Z" fill="url(#paint6_linear_1_42)"/>
<path d="M1 497.621C15.8263 496.911 30.5777 495.965 45.1979 493.802C62.5734 491.231 79.2647 487.398 95.0845 481.823C107.034 477.609 117.971 472.31 128.045 466.057C145.102 455.473 158.767 442.994 170.2 429.319C177.061 421.114 182.271 412.311 184.389 402.824C186.892 391.608 182.777 381.602 172.59 372.739C162.75 364.186 150.388 358.124 135.581 354.824C122.085 351.813 108.308 349.426 94.6159 346.882C78.7587 343.937 63.5856 339.861 50.4461 332.852C38.8625 326.672 29.3313 319.125 22.1992 310.157C16.6604 303.188 13.324 295.818 12.1526 287.824C10.5312 276.772 6.95116 265.97 1.55294 255.49C1.48734 255.372 1.20618 255.313 1.01874 255.221C1.01874 251.276 1.01874 247.338 1.01874 243.393C4.01775 248.561 7.31666 253.656 9.93142 258.922C14.0176 267.134 16.623 275.602 17.9631 284.287C19.1159 291.801 20.7841 299.263 26.3041 306.015C36.0228 317.915 48.7311 327.625 66.1441 334.246C80.8392 339.834 96.8277 342.517 112.788 345.37C125.89 347.717 138.908 350.209 150.988 354.62C165.702 359.992 177.595 367.506 185.102 377.96C190.359 385.277 192.374 393.041 190.978 401.411C188.897 413.817 181.69 424.724 172.646 435.144C164.662 444.342 155.224 452.777 144.821 460.758C129.001 472.895 110.379 482.158 89.1146 488.858C73.2761 493.848 56.6785 497.22 39.5185 499.074C29.6218 500.139 19.6313 500.777 9.67838 501.573C6.81058 501.803 3.91466 501.908 1.02812 502.072C1.02812 500.593 1.02812 499.114 1.02812 497.641L1 497.621Z" fill="url(#paint7_linear_1_42)"/>
<path d="M1 479.884C9.72524 478.575 18.5161 477.484 27.1476 475.919C44.6449 472.757 60.7459 467.372 75.0849 459.667C92.3573 450.384 106.293 438.938 117.511 425.901C124.184 418.149 129.236 409.839 130.913 400.806C132.413 392.68 129.695 385.113 122.872 378.301C114.541 369.985 103.266 364.443 89.78 361.188C76.4907 357.986 62.9764 355.265 49.5652 352.299C33.7548 348.802 20.1749 342.793 8.84428 334.325C6.03271 332.228 3.60539 329.874 1 327.639C1 324.844 1 322.057 1 319.263C3.71785 321.919 6.46382 324.568 9.15355 327.238C15.4608 333.49 23.6894 338.184 33.0425 342.07C45.1229 347.086 58.4966 349.65 71.8328 352.234C87.1559 355.205 102.273 358.46 114.869 365.613C125.918 371.891 133.978 379.649 136.63 389.662C139.17 399.294 136.124 408.393 130.782 417.275C124.793 427.242 116.181 436.091 106.603 444.408C89.0303 459.667 67.2406 470.969 40.5775 477.477C28.1879 480.502 15.6014 482.757 2.58385 483.855C2.04028 483.901 1.5342 484.157 1.00937 484.321C1.00937 482.842 1.00937 481.363 1.00937 479.89L1 479.884Z" fill="url(#paint8_linear_1_42)"/>
<path d="M1 459.187C9.63152 456.235 18.6004 453.678 26.7915 450.226C35.0762 446.735 42.5925 442.363 48.6467 436.913C52.686 433.284 57.2501 429.918 61.0083 426.157C68.89 418.268 75.1411 409.859 76.9686 400.07C79.0023 389.176 72.4795 381.109 61.0551 374.291C50.568 368.032 37.6348 365.711 25.142 362.562C16.9885 360.511 9.04109 358.019 1 355.725C1 353.917 1 352.109 1 350.307C9.7065 352.931 18.338 355.685 27.1476 358.131C35.1137 360.347 43.614 361.727 51.2802 364.344C68.1216 370.083 80.4925 378.893 83.7258 392.312C85.4221 399.353 82.9666 406.342 78.9648 412.916C72.8075 423.028 63.8761 431.851 53.3983 440.009C39.2842 451.009 22.0305 458.536 2.38704 463.579C1.96531 463.684 1.45922 463.612 0.990628 463.618C0.990628 462.139 0.990628 460.66 0.990628 459.187H1Z" fill="url(#paint9_linear_1_42)"/>
<path d="M1 427.656C5.47977 423.613 10.4188 419.767 14.3268 415.467C19.5282 409.747 23.1927 403.495 23.4832 396.533C23.7175 390.832 20.6435 385.856 15.2359 381.885C11.0935 378.841 5.78904 376.572 1 373.956C1 372.312 1 370.669 1 369.031C16.6604 373.745 27.4475 381.214 29.8748 393.627C31.3181 401.023 27.7943 407.492 23.1927 413.85C17.9819 421.049 11.2435 427.452 2.87438 433.001C2.29332 433.389 1.62792 433.711 1.00937 434.066C1.00937 431.929 1.00937 429.799 1.00937 427.663L1 427.656Z" fill="url(#paint10_linear_1_42)"/>
<defs>
<linearGradient id="paint0_linear_1_42" x1="1" y1="309.375" x2="567.522" y2="309.375" gradientUnits="userSpaceOnUse">
<stop stop-color="#139FEF" stop-opacity="0.5"/>
<stop offset="0.22" stop-color="#1246A6" stop-opacity="0.76"/>
<stop offset="0.6" stop-color="#139FEF" stop-opacity="0.5"/>
<stop offset="1" stop-color="#1240A1" stop-opacity="0.8"/>
</linearGradient>
<linearGradient id="paint1_linear_1_42" x1="1" y1="315.515" x2="513.793" y2="315.515" gradientUnits="userSpaceOnUse">
<stop stop-color="#139FEF" stop-opacity="0.5"/>
<stop offset="0.22" stop-color="#1246A6" stop-opacity="0.76"/>
<stop offset="0.6" stop-color="#139FEF" stop-opacity="0.5"/>
<stop offset="1" stop-color="#1240A1" stop-opacity="0.8"/>
</linearGradient>
<linearGradient id="paint2_linear_1_42" x1="1" y1="322.451" x2="460.045" y2="322.451" gradientUnits="userSpaceOnUse">
<stop stop-color="#139FEF" stop-opacity="0.5"/>
<stop offset="0.22" stop-color="#1246A6" stop-opacity="0.76"/>
<stop offset="0.6" stop-color="#139FEF" stop-opacity="0.5"/>
<stop offset="1" stop-color="#1240A1" stop-opacity="0.8"/>
</linearGradient>
<linearGradient id="paint3_linear_1_42" x1="1" y1="329.361" x2="406.513" y2="329.361" gradientUnits="userSpaceOnUse">
<stop stop-color="#139FEF" stop-opacity="0.5"/>
<stop offset="0.22" stop-color="#1246A6" stop-opacity="0.76"/>
<stop offset="0.6" stop-color="#139FEF" stop-opacity="0.5"/>
<stop offset="1" stop-color="#1240A1" stop-opacity="0.8"/>
</linearGradient>
<linearGradient id="paint4_linear_1_42" x1="1" y1="337.237" x2="352.606" y2="337.237" gradientUnits="userSpaceOnUse">
<stop stop-color="#139FEF" stop-opacity="0.5"/>
<stop offset="0.22" stop-color="#1246A6" stop-opacity="0.76"/>
<stop offset="0.6" stop-color="#139FEF" stop-opacity="0.5"/>
<stop offset="1" stop-color="#1240A1" stop-opacity="0.8"/>
</linearGradient>
<linearGradient id="paint5_linear_1_42" x1="1" y1="345.856" x2="299.073" y2="345.856" gradientUnits="userSpaceOnUse">
<stop stop-color="#139FEF" stop-opacity="0.5"/>
<stop offset="0.22" stop-color="#1246A6" stop-opacity="0.76"/>
<stop offset="0.6" stop-color="#139FEF" stop-opacity="0.5"/>
<stop offset="1" stop-color="#1240A1" stop-opacity="0.8"/>
</linearGradient>
<linearGradient id="paint6_linear_1_42" x1="1" y1="356.481" x2="245.222" y2="356.481" gradientUnits="userSpaceOnUse">
<stop stop-color="#139FEF" stop-opacity="0.5"/>
<stop offset="0.22" stop-color="#1246A6" stop-opacity="0.76"/>
<stop offset="0.6" stop-color="#139FEF" stop-opacity="0.5"/>
<stop offset="1" stop-color="#1240A1" stop-opacity="0.8"/>
</linearGradient>
<linearGradient id="paint7_linear_1_42" x1="1" y1="372.72" x2="191.381" y2="372.72" gradientUnits="userSpaceOnUse">
<stop stop-color="#139FEF" stop-opacity="0.5"/>
<stop offset="0.22" stop-color="#1246A6" stop-opacity="0.76"/>
<stop offset="0.6" stop-color="#139FEF" stop-opacity="0.5"/>
<stop offset="1" stop-color="#1240A1" stop-opacity="0.8"/>
</linearGradient>
<linearGradient id="paint8_linear_1_42" x1="1" y1="401.792" x2="137.53" y2="401.792" gradientUnits="userSpaceOnUse">
<stop stop-color="#139FEF" stop-opacity="0.5"/>
<stop offset="0.22" stop-color="#1246A6" stop-opacity="0.76"/>
<stop offset="0.6" stop-color="#139FEF" stop-opacity="0.5"/>
<stop offset="1" stop-color="#1240A1" stop-opacity="0.8"/>
</linearGradient>
<linearGradient id="paint9_linear_1_42" x1="1" y1="406.973" x2="84.2787" y2="406.973" gradientUnits="userSpaceOnUse">
<stop stop-color="#139FEF" stop-opacity="0.5"/>
<stop offset="0.22" stop-color="#1246A6" stop-opacity="0.76"/>
<stop offset="0.6" stop-color="#139FEF" stop-opacity="0.5"/>
<stop offset="1" stop-color="#1240A1" stop-opacity="0.8"/>
</linearGradient>
<linearGradient id="paint10_linear_1_42" x1="1" y1="401.542" x2="30.2028" y2="401.542" gradientUnits="userSpaceOnUse">
<stop stop-color="#139FEF" stop-opacity="0.5"/>
<stop offset="0.22" stop-color="#1246A6" stop-opacity="0.76"/>
<stop offset="0.6" stop-color="#139FEF" stop-opacity="0.5"/>
<stop offset="1" stop-color="#1240A1" stop-opacity="0.8"/>
</linearGradient>
</defs>
</svg>
