<svg width="519" height="500" viewBox="0 0 519 500" fill="none" xmlns="http://www.w3.org/2000/svg">
<path d="M13.2709 0.000534058C11.7135 11.5912 9.90204 23.1559 8.65745 34.7856C6.08355 58.8136 6.35723 82.848 9.24391 106.856C12.4043 133.183 18.9205 158.591 29.5549 182.906C46.1126 220.764 71.0045 252.046 103.638 277.389C148.997 312.617 197.119 343.476 247.991 370.134C290.79 392.561 335.035 411.77 379.521 430.51C415.001 445.455 450.391 460.633 485.689 476.007C497.014 480.936 507.916 486.836 519.007 492.293V499.455C506.319 493.302 493.828 486.706 480.913 481.086C447.7 466.63 414.376 452.402 380.948 438.448C339.804 421.27 298.831 403.748 259.017 383.627C201.12 354.37 146.501 319.995 95.5771 279.76C51.899 245.254 24.0487 200.656 10.104 147.124C1.13123 112.691 -1.48176 77.6387 1.49614 42.235C2.67557 28.1112 4.96276 14.0787 6.75472 0.000534058C8.92461 0.000534058 11.101 0.000534058 13.2709 0.000534058Z" fill="url(#paint0_linear_1_6)"/>
<path d="M56.2843 0C54.5706 10.5879 52.4984 21.1302 51.2147 31.7637C48.9667 50.426 48.4584 69.173 49.7356 87.9591C53.5085 143.588 71.7929 193.285 109.782 234.959C123.91 250.457 140.624 262.907 157.37 275.312C204.254 310.051 254.52 339.093 307.119 364.241C350.302 384.883 394.814 402.432 438.727 421.38C465.111 432.763 491.045 445.174 517.188 457.116C517.775 457.383 518.4 457.559 519.007 457.78V464.943C510.431 460.769 501.98 456.315 493.261 452.473C464.681 439.873 436.127 427.202 407.338 415.103C361.536 395.861 315.707 376.73 271.567 353.822C220.382 327.261 171.856 296.559 127.07 260.198C86.3632 227.152 61.5885 184.175 49.8724 133.404C42.3071 100.631 40.867 67.493 44.4379 34.1209C45.6499 22.7126 47.5331 11.3693 49.11 0C51.5015 0 53.8864 0 56.2778 0H56.2843Z" fill="url(#paint1_linear_1_6)"/>
<path d="M99.2979 3.75435e-06C89.7777 44.2791 88.1617 88.5646 99.767 132.733C111.737 178.321 136.238 215.639 173.693 244.551C212.699 274.667 254.045 301.013 297.775 323.726C336.507 343.847 376.706 360.699 416.8 377.831C448.703 391.466 480.261 405.902 511.969 419.994C514.334 421.042 516.661 422.175 519.007 423.262V430.425C501.146 422.012 483.474 413.169 465.385 405.277C437.15 392.957 408.629 381.301 380.244 369.327C321.65 344.602 264.829 316.511 212.139 280.632C192.043 266.951 172.084 253.042 154.027 236.691C123.747 209.264 104.087 175.345 93.518 136.041C85.3727 105.749 83.1702 74.9098 86.1286 43.7712C87.4579 29.7647 89.9992 15.8819 91.9867 1.93396C92.0779 1.29582 92.0844 0.638143 92.13 -0.00650787C94.5215 -0.00650787 96.9064 -0.00650787 99.2979 -0.00650787V3.75435e-06Z" fill="url(#paint2_linear_1_6)"/>
<path d="M142.311 0C136.505 24.7051 133.293 49.7098 134.036 75.1181C135.124 111.98 143.836 146.72 163.333 178.399C176.671 200.07 194.487 217.391 214.68 232.667C259.362 266.462 307.36 294.677 358.369 317.644C396.437 334.782 435.045 350.736 473.302 367.471C487.207 373.553 500.8 380.364 514.543 386.83C516.003 387.52 517.508 388.113 518.993 388.751V395.913C511.383 392.221 503.889 388.282 496.148 384.883C470.33 373.54 444.533 362.151 418.533 351.237C381.208 335.57 344.046 319.591 308.292 300.538C269.221 279.713 232.052 255.94 197.699 227.979C162.857 199.62 141.751 162.836 132.524 119.078C124.346 80.3014 126.177 41.6809 134.603 3.1907C134.831 2.13581 134.955 1.0614 135.13 0C137.522 0 139.907 0 142.298 0L142.311 0Z" fill="url(#paint3_linear_1_6)"/>
<path d="M185.325 0C182.842 13.0819 179.63 26.066 178.014 39.2521C173.035 79.9237 177.31 119.319 196.344 156.305C207.754 178.471 223.712 196.729 243.469 211.934C280.325 240.286 319.565 264.808 361.699 284.382C397.577 301.059 434.12 316.309 470.285 332.373C485.448 339.106 500.396 346.314 515.449 353.301C516.628 353.848 517.814 354.363 519 354.897V362.06C507.714 356.505 496.63 350.501 485.116 345.474C453.304 331.598 421.218 318.34 389.406 304.471C334.787 280.658 283.198 251.635 236.295 214.63C204.202 189.306 183.963 156.624 174.892 116.923C166.18 78.7907 168.467 40.8995 177.616 3.18419C177.87 2.14233 177.975 1.0614 178.15 0C180.542 0 182.927 0 185.318 0L185.325 0Z" fill="url(#paint4_linear_1_6)"/>
<path d="M228.99 0C224.598 15.3479 221.105 30.8781 219.62 46.7991C215.495 90.8502 223.119 131.906 250.519 167.954C261.434 182.319 275.431 193.239 289.793 203.814C329.15 232.797 372.02 255.51 416.722 274.967C439.698 284.968 462.772 294.742 485.709 304.842C495.731 309.257 505.511 314.219 515.416 318.914C516.582 319.467 517.808 319.897 519.007 320.385V327.548C508.294 322.306 497.744 316.7 486.843 311.887C452.613 296.774 418.025 282.461 384.01 266.899C343.916 248.562 306.402 225.745 271.664 198.52C242.133 175.378 223.686 145.307 215.944 108.673C208.516 73.5163 211.481 38.8158 220.747 4.41488C221.138 2.95628 221.47 1.47814 221.835 0.00651163C224.226 0.00651163 226.611 0.00651163 229.003 0.00651163L228.99 0Z" fill="url(#paint5_linear_1_6)"/>
<path d="M272.648 0C263.272 27.0428 258.397 54.7693 261.102 83.4205C264.985 124.528 283.309 157.38 316.998 181.954C350.999 206.757 387.334 227.262 425.708 244.323C452.756 256.35 479.864 268.26 506.932 280.254C510.985 282.051 514.973 283.992 518.993 285.867V293.03C493.372 281.504 467.874 269.712 442.109 258.525C407.332 243.424 372.913 227.614 341.29 206.549C326.329 196.58 311.491 186.18 297.925 174.44C275.405 154.957 262.568 129.477 257.036 100.357C250.813 67.6233 254.527 35.5926 264.418 4.06326C264.835 2.72837 265.135 1.35442 265.487 0C267.879 0 270.263 0 272.655 0L272.648 0Z" fill="url(#paint6_linear_1_6)"/>
<path d="M316.965 0C315.538 4.30419 314.098 8.60186 312.677 12.906C306.22 32.4149 302.512 52.3795 303.294 72.9953C304.708 110.281 319.252 140.84 349.579 163.455C378.954 185.36 410.825 202.87 444.181 217.827C468.623 228.786 493.046 239.804 517.482 250.789C517.977 251.01 518.492 251.167 519 251.355V258.518C505.055 251.987 491.261 245.111 477.14 239.003C446.976 225.953 416.663 213.256 388.148 196.742C370.756 186.669 353.899 175.768 338.371 163.006C315.655 144.337 302.753 119.99 298.094 91.1758C293.201 60.9228 298.27 31.8223 308.703 3.38605C309.113 2.27256 309.439 1.13302 309.804 0.00651163C312.195 0.00651163 314.58 0.00651163 316.972 0.00651163L316.965 0Z" fill="url(#paint7_linear_1_6)"/>
<path d="M362.592 3.75375e-06C351.195 23.5916 344.014 48.1991 345.682 74.6688C347.533 104.075 359.575 128.175 383.6 146.017C410.258 165.812 439.509 180.887 469.738 194.287C484.914 201.014 499.96 208.033 515.077 214.89C516.328 215.457 517.69 215.763 519 216.193V223.355C490.628 210.326 462.1 197.628 433.944 184.149C412.186 173.73 391.582 161.169 373.024 145.678C353.664 129.523 343.049 108.321 339.863 83.4921C336.084 54.053 342.867 26.4567 355.424 -0.00650787H362.592V3.75375e-06Z" fill="url(#paint8_linear_1_6)"/>
<path d="M410.166 0C396.319 20.3358 387.666 42.5405 387.366 67.3498C387.034 94.4772 398.346 115.718 420.703 131.372C442.689 146.766 466.59 158.447 490.987 169.309C500.396 173.496 509.669 177.982 519.006 182.332V188.844C490.785 174.792 460.817 164.282 433.957 147.508C424.333 141.498 414.838 135.064 406.211 127.739C392.566 116.154 385.059 100.774 382.251 83.1665C378.478 59.5098 383.574 37.2856 393.687 15.9926C396.274 10.5228 399.441 5.32 402.34 0C404.947 0 407.553 0 410.16 0H410.166Z" fill="url(#paint9_linear_1_6)"/>
<path d="M464.257 3.75495e-06C459.396 5.07907 454.209 9.88466 449.733 15.2828C438.844 28.4168 431.761 43.4391 429.923 60.48C427.578 82.2419 434.752 100.123 453.036 112.944C465.508 121.689 478.899 128.813 492.661 135.273C500.22 138.821 507.805 142.312 515.39 145.795C516.556 146.329 517.801 146.707 519.006 147.156V154.319C504.971 147.697 490.739 141.459 476.97 134.315C466.792 129.034 456.757 123.22 447.498 116.487C428.503 102.682 421.361 83.2512 423.87 60.3042C426.379 37.3572 437.424 18.5061 453.291 2.20093C453.955 1.51721 454.522 0.729306 455.135 -0.00650787C458.178 -0.00650787 461.214 -0.00650787 464.257 -0.00650787V3.75495e-06Z" fill="url(#paint10_linear_1_6)"/>
<path d="M519 16.2791C504.26 21.1302 491.456 28.8791 481.747 41.2316C475.837 48.7526 472.07 57.2307 471.471 66.7768C470.747 78.2568 475.348 87.8419 484.731 94.1777C493.215 99.9079 502.586 104.336 511.611 109.252C513.982 110.548 516.53 111.525 518.993 112.651V119.163C507.525 113.257 495.783 107.826 484.66 101.334C470.923 93.3181 464.368 80.9591 465.652 64.8558C466.388 55.6549 469.777 47.3851 475.068 39.9098C485.982 24.4772 501.061 15.0288 518.993 9.76745V16.2791H519Z" fill="url(#paint11_linear_1_6)"/>
<path d="M519 84.6512C510.601 82.1637 506.411 77.4688 506.73 70.5274C506.939 65.9953 509.121 62.2447 512.373 59.2102C514.413 57.3088 516.784 55.7526 519 54.04V61.2028C517.736 62.3619 516.296 63.3777 515.234 64.6995C510.796 70.2344 512.321 75.5349 519 78.133V84.6447V84.6512Z" fill="url(#paint12_linear_1_6)"/>
<defs>
<linearGradient id="paint0_linear_1_6" x1="219.385" y1="268.931" x2="500.117" y2="144.817" gradientUnits="userSpaceOnUse">
<stop stop-color="#1240A1" stop-opacity="0.5"/>
<stop offset="1" stop-color="#139FEF" stop-opacity="0.8"/>
</linearGradient>
<linearGradient id="paint1_linear_1_6" x1="216.459" y1="262.314" x2="497.191" y2="138.2" gradientUnits="userSpaceOnUse">
<stop stop-color="#1240A1" stop-opacity="0.5"/>
<stop offset="1" stop-color="#139FEF" stop-opacity="0.8"/>
</linearGradient>
<linearGradient id="paint2_linear_1_6" x1="213.592" y1="255.822" x2="494.324" y2="131.708" gradientUnits="userSpaceOnUse">
<stop stop-color="#1240A1" stop-opacity="0.5"/>
<stop offset="1" stop-color="#139FEF" stop-opacity="0.8"/>
</linearGradient>
<linearGradient id="paint3_linear_1_6" x1="210.718" y1="249.324" x2="491.45" y2="125.21" gradientUnits="userSpaceOnUse">
<stop stop-color="#1240A1" stop-opacity="0.5"/>
<stop offset="1" stop-color="#139FEF" stop-opacity="0.8"/>
</linearGradient>
<linearGradient id="paint4_linear_1_6" x1="207.969" y1="243.105" x2="488.7" y2="118.991" gradientUnits="userSpaceOnUse">
<stop stop-color="#1240A1" stop-opacity="0.5"/>
<stop offset="1" stop-color="#139FEF" stop-opacity="0.8"/>
</linearGradient>
<linearGradient id="paint5_linear_1_6" x1="205.154" y1="236.73" x2="485.885" y2="112.616" gradientUnits="userSpaceOnUse">
<stop stop-color="#1240A1" stop-opacity="0.5"/>
<stop offset="1" stop-color="#139FEF" stop-opacity="0.8"/>
</linearGradient>
<linearGradient id="paint6_linear_1_6" x1="202.332" y1="230.362" x2="483.064" y2="106.241" gradientUnits="userSpaceOnUse">
<stop stop-color="#1240A1" stop-opacity="0.5"/>
<stop offset="1" stop-color="#139FEF" stop-opacity="0.8"/>
</linearGradient>
<linearGradient id="paint7_linear_1_6" x1="199.569" y1="224.104" x2="480.301" y2="99.9901" gradientUnits="userSpaceOnUse">
<stop stop-color="#1240A1" stop-opacity="0.5"/>
<stop offset="1" stop-color="#139FEF" stop-opacity="0.8"/>
</linearGradient>
<linearGradient id="paint8_linear_1_6" x1="196.793" y1="217.82" x2="477.525" y2="93.7063" gradientUnits="userSpaceOnUse">
<stop stop-color="#1240A1" stop-opacity="0.5"/>
<stop offset="1" stop-color="#139FEF" stop-opacity="0.8"/>
</linearGradient>
<linearGradient id="paint9_linear_1_6" x1="194.239" y1="212.051" x2="474.971" y2="87.937" gradientUnits="userSpaceOnUse">
<stop stop-color="#1240A1" stop-opacity="0.5"/>
<stop offset="1" stop-color="#139FEF" stop-opacity="0.8"/>
</linearGradient>
<linearGradient id="paint10_linear_1_6" x1="192.167" y1="207.363" x2="472.899" y2="83.2486" gradientUnits="userSpaceOnUse">
<stop stop-color="#1240A1" stop-opacity="0.5"/>
<stop offset="1" stop-color="#139FEF" stop-opacity="0.8"/>
</linearGradient>
<linearGradient id="paint11_linear_1_6" x1="192.512" y1="208.138" x2="473.244" y2="84.0235" gradientUnits="userSpaceOnUse">
<stop stop-color="#1240A1" stop-opacity="0.5"/>
<stop offset="1" stop-color="#139FEF" stop-opacity="0.8"/>
</linearGradient>
<linearGradient id="paint12_linear_1_6" x1="194.493" y1="212.618" x2="475.225" y2="88.5033" gradientUnits="userSpaceOnUse">
<stop stop-color="#1240A1" stop-opacity="0.5"/>
<stop offset="1" stop-color="#139FEF" stop-opacity="0.8"/>
</linearGradient>
</defs>
</svg>
