<svg width="63" height="59" viewBox="0 0 63 59" fill="none" xmlns="http://www.w3.org/2000/svg">
<path d="M29.8021 36.0254C40.3723 32.4269 44.4608 14.3395 38.0393 6.3126C36.0615 3.84034 31.388 -0.100212 23.6622 1.19818C18.2336 2.1105 15.3184 6.43998 14.9523 7.01682C10.2785 14.3792 17.6861 19.7858 22.719 15.877C24.1928 14.7324 28.1581 12.3278 30.7329 15.2249C34.3196 19.2607 26.9413 31.1639 18.8824 35.7738C17.5831 36.517 16.4507 36.9385 15.8611 37.1399C20.0448 36.8248 25.6183 36.3404 29.8021 36.0254Z" fill="#41D641"/>
<path d="M41.0761 17.6344V17.647C41.0384 17.647 40.9882 17.6596 40.9505 17.6721C38.2625 18.2248 35.16 15.587 35.4866 12.7105C35.7001 10.7636 37.4461 8.97993 39.5814 8.82922C40.7495 11.3791 41.2268 14.4565 41.0761 17.6344Z" fill="#159615"/>
<path d="M32.8738 26.6657C31.6805 27.9971 29.5201 28.1102 27.8369 27.3439C29.608 24.8443 30.9144 22.2442 31.4168 20.0084C33.8033 21.2017 34.5067 24.8192 32.8738 26.6657Z" fill="#159615"/>
<path opacity="0.09" d="M38.0363 6.31718C36.2025 4.01856 32.0448 0.451287 25.262 1.00401C30.4874 1.41853 33.7756 4.34734 35.3609 6.31718C39.2631 11.1659 38.8967 17.3486 37.8011 21.8851C36.8763 25.7141 33.4906 28.4356 29.5542 28.5835C28.6393 28.6179 27.745 28.6315 26.8698 28.6252C24.6214 31.4765 21.7951 34.1017 18.8811 35.7722C17.7883 36.4003 16.8086 36.8022 16.1806 37.0283H17.3235C21.2802 36.7143 26.0784 36.2998 29.7963 36.0235C33.6023 34.7297 36.5541 31.5644 38.4885 27.6705C41.9553 20.737 42.1437 11.4545 38.0363 6.31718Z" fill="black"/>
<path d="M47.222 42.7809C60.3432 43.1035 57.2617 30.483 58.8025 29.9289C60.3434 29.3747 66.493 40.2635 57.3682 48.8801C52.7899 53.2035 45.594 48.8005 45.2739 48.6213C45.9233 46.6745 46.5726 44.7277 47.222 42.7809Z" fill="#2BB62B"/>
<path opacity="0.09" d="M62.1782 36.6515C61.9563 38.82 61.1792 41.1572 59.5304 43.4249C59.1035 44.0121 58.2876 44.1194 57.7081 43.682C57.5239 43.543 57.3339 43.4101 57.1379 43.284C56.9621 43.1709 56.8594 42.9831 56.8576 42.7741C56.8477 41.6115 56.5485 40.4283 55.9983 39.3394C54.4911 41.3742 51.8783 42.8941 47.2183 42.7811C46.5778 44.728 45.9245 46.6749 45.2714 48.6218C45.598 48.7977 52.7953 53.2065 57.3675 48.8856C58.385 47.9183 59.214 46.9261 59.8796 45.9338L59.8922 45.9464C62.0274 42.7309 62.4797 39.4149 62.1782 36.6515Z" fill="black"/>
<path d="M43.232 29.1106C32.102 31.5298 23.6752 31.3322 16.3359 29.9709C9.48089 28.6994 6.61016 39.3701 16.2622 39.3701H43.0171C54.2864 39.3701 51.0751 27.4058 43.232 29.1106Z" fill="#41D641"/>
<path d="M28.7036 30.9488C28.0756 32.4185 26.5432 33.976 24.6465 34.3528C22.7247 34.7422 20.2125 33.9383 19.4588 32.1295C19.2327 31.5768 19.195 30.9865 19.2704 30.4464C22.1972 30.8358 25.3123 31.0368 28.7036 30.9488Z" fill="#159615"/>
<path d="M45.2463 39.1762C44.5806 39.3018 43.8395 39.3646 43.023 39.3646H36.6295C35.9386 38.2341 35.612 36.8021 36.1522 35.5461C37.1947 33.147 41.0509 32.2174 43.4249 33.9885C44.9573 35.1442 45.7236 37.3423 45.2463 39.1762Z" fill="#159615"/>
<path opacity="0.09" d="M50.3208 34.5287C50.17 37.0031 48.0221 39.3645 43.0229 39.3645C39.8449 39.3645 41.8547 39.3645 16.2559 39.3645C10.9677 39.3645 9.44792 36.1616 10.2769 33.486V33.4734C11.3822 33.172 12.6383 33.1343 14.0075 33.4358C27.7992 36.4253 38.2373 36.1364 47.3312 34.4533C48.4241 34.2524 49.4289 34.2901 50.3208 34.5287Z" fill="black"/>
<path d="M14.0048 35.7696C27.7938 38.7669 38.238 38.4764 47.3307 36.7898C55.8234 35.2146 59.3759 48.4802 47.4179 48.4802C15.7068 48.4802 18.1936 48.4802 14.271 48.4802C0.309291 48.4802 4.28784 33.6576 14.0048 35.7696Z" fill="#41D641"/>
<path d="M33.7405 38.0457C33.8536 39.7791 33.0371 41.613 31.4544 42.4923C29.0176 43.8614 25.777 42.4672 24.8726 40.0931C24.546 39.2642 24.5334 38.3598 24.7596 37.5432C27.9374 37.895 30.9269 38.0457 33.7405 38.0457Z" fill="#159615"/>
<path d="M17.738 48.4838H14.2713C12.5756 48.4838 11.1436 48.2703 9.95035 47.8809C9.90015 47.8306 9.86245 47.7678 9.82475 47.705C8.9203 46.2856 8.63149 44.1628 9.71164 42.5048C11.0556 40.4449 13.8692 40.0806 15.8538 40.897C16.0925 40.9974 18.3535 41.9773 18.8433 44.3889C19.1449 45.8461 18.6927 47.3658 17.738 48.4838Z" fill="#159615"/>
<path d="M53.1093 46.9011C51.8658 47.8684 50.0068 48.4838 47.4193 48.4838H43.0607C42.2569 47.0142 42.1564 44.9416 43.2366 43.3213C44.4048 41.5503 46.5527 40.9725 48.2108 41.2237C51.0619 41.6382 53.2349 44.59 53.1093 46.9011Z" fill="#159615"/>
<path opacity="0.09" d="M47.4192 48.4838C15.7031 48.4838 18.1902 48.4838 14.2713 48.4838C8.31748 48.4838 5.61684 45.7957 5.25262 42.8566C6.55889 42.3039 8.11657 42.1029 9.84985 42.3793C21.2551 44.2257 33.0873 44.9291 49.341 41.3995C51.5015 40.9348 53.4233 41.1484 55.006 41.814C55.6089 44.9919 53.5489 48.4838 47.4192 48.4838Z" fill="black"/>
<path d="M49.3412 43.7368C33.089 47.2694 21.2504 46.567 9.84492 44.7142C-0.210665 43.0806 -4.22298 58.0643 9.87111 58.0643H48.9393C65.395 58.0643 60.7939 41.2474 49.3412 43.7368Z" fill="#41D641"/>
<path d="M10.8924 47.4537C10.4905 50.8829 5.94345 53.3699 2.51438 52.2519C1.88635 52.0384 1.28342 51.7118 0.755798 51.3099C0.956808 47.5794 4.56179 43.8613 9.84985 44.7155C10.0509 44.7532 10.2518 44.7783 10.4528 44.816C10.8296 45.6575 10.9929 46.5871 10.8924 47.4537Z" fill="#159615"/>
<path d="M47.055 44.2131C46.9545 46.2228 46.1003 48.3456 44.3544 49.6645C41.5407 51.7873 37.2952 51.1718 35.1347 48.823C34.4942 48.1321 33.8912 47.1147 33.6149 46.0344C37.7725 45.7455 42.2191 45.1677 47.055 44.2131Z" fill="#159615"/>
<path d="M27.7615 58.0676H15.678C15.4771 56.1458 16.6201 54.0984 18.1777 52.9804C20.9536 50.9958 25.6137 51.5987 27.2466 54.7264C27.7867 55.7564 27.9374 56.9371 27.7615 58.0676Z" fill="#159615"/>
<path d="M59.6283 51.5109C59.2641 54.852 56.174 57.9796 49.2154 58.0676C48.6376 56.2086 49.2782 53.8346 50.5846 52.3147C52.9083 49.6268 57.1161 49.8654 59.5906 51.4858C59.6032 51.4984 59.6158 51.4984 59.6283 51.5109Z" fill="#159615"/>
<path opacity="0.09" d="M48.9392 58.0676C44.3168 58.0676 47.2434 58.0676 9.87505 58.0676C2.38887 58.0676 0.00225559 53.8346 0.944303 50.1167C1.63514 52.8047 4.37337 55.0782 9.87505 55.0782H48.9392C55.521 55.0782 58.7366 52.3902 59.4776 49.3253C60.4448 53.3825 57.6186 58.0676 48.9392 58.0676Z" fill="black"/>
<path d="M19.5741 6.90788C20.3645 6.90788 21.0054 7.54871 21.0054 8.33916C21.0054 9.12962 20.3645 9.77045 19.5741 9.77045C18.7836 9.77045 18.1428 9.12962 18.1428 8.33916C18.1428 7.54871 18.7836 6.90788 19.5741 6.90788ZM60.8527 30.6086C59.8386 29.1469 59.0371 29.0478 58.5469 29.2292C57.7286 29.526 57.6253 30.5095 57.4558 32.1382C57.2356 34.2504 56.8966 37.3263 54.9074 39.473C54.0449 37.9756 52.597 36.6967 50.6823 36.1713C51.3439 34.5094 51.1294 32.5547 50.0287 30.9378C48.5436 28.7569 45.8868 27.7794 43.0751 28.3892C41.5065 28.7307 39.9833 29.007 38.4793 29.2535C42.8644 21.7125 43.0177 11.3442 38.6172 5.84988C36.9374 3.75306 32.1011 -0.972728 23.5331 0.464951C17.5683 1.47905 14.4593 6.4152 14.3343 6.6171C11.5815 10.9566 12.8485 14.5362 14.7704 16.2821C15.3006 16.764 15.893 17.1257 16.5145 17.3963C16.2619 17.7597 15.9931 18.1269 15.6957 18.4985C15.5185 18.6253 14.8798 19.0501 13.5262 19.6514C13.1537 19.8173 12.9855 20.2534 13.1513 20.6259C13.2739 20.9011 13.5436 21.0645 13.8266 21.0645C13.9263 21.0645 14.0285 21.044 14.1258 21.0008C14.7497 20.7234 15.2302 20.4812 15.606 20.2768C15.6603 20.8233 15.7139 21.4118 15.7311 21.7266C15.7527 22.1195 16.0784 22.4241 16.4677 22.4241C16.4815 22.4241 16.4954 22.4235 16.5091 22.4229C16.9159 22.4007 17.2277 22.0522 17.2055 21.6449C17.1759 21.1072 17.053 19.8744 16.9821 19.2415C17.3553 18.7662 17.6916 18.2958 17.996 17.8318C19.7463 18.1164 21.612 17.6709 23.1743 16.4552C23.9325 15.8683 27.8353 13.0727 30.1808 15.7109C32.2751 18.0581 29.7173 24.6192 24.5949 30.1554C21.8492 30.035 19.151 29.7457 16.4708 29.2468C14.3499 28.8509 12.3295 29.4721 10.9296 30.9464C9.78439 32.1528 9.21266 33.7738 9.3548 35.3135C7.96398 35.822 6.75379 36.7178 5.84817 37.9696C4.40724 39.9605 4.08554 42.4493 4.93703 44.5314C3.57524 45.0988 2.38454 46.0058 1.48758 47.2339C-0.153174 49.4796 -0.460792 52.2758 0.684922 54.5312C1.49536 56.1268 3.76641 58.8028 9.87111 58.8028H48.939C56.2146 58.8028 58.816 55.6835 59.7197 53.8246C60.6781 51.8509 60.6032 49.5558 59.6057 47.5244C65.2977 40.4278 62.4675 32.9358 60.8527 30.6086ZM58.9241 32.292C58.977 31.7849 59.0395 31.1889 59.1163 30.8164C59.597 31.2718 60.4621 32.5359 61.0268 34.5677C61.6957 36.9758 62.2351 41.5793 58.789 46.1869C58.7568 46.1443 58.7325 46.0983 58.6993 46.0561C57.8964 45.035 56.8962 44.237 55.7602 43.6802C55.892 42.7861 55.811 41.8546 55.5244 40.9281C58.2577 38.4001 58.6818 34.6078 58.9241 32.292ZM40.3227 16.9782C39.3791 17.0131 38.3477 16.6289 37.5274 15.8796C36.5866 15.0198 36.0975 13.8663 36.2201 12.7909C36.3822 11.3088 37.625 10.003 39.1 9.65508C39.968 11.7954 40.3714 14.3276 40.3227 16.9782ZM22.2691 15.289C21.3681 15.9891 20.425 16.3325 19.5204 16.4197C20.3187 15.6528 21.0099 14.7759 21.5704 13.8068C21.7741 13.4541 21.6539 13.0023 21.3007 12.7981C20.9474 12.5944 20.4963 12.7146 20.292 13.0678C19.7933 13.9305 19.1794 14.7116 18.4668 15.3898C18.1673 15.6751 17.8353 15.9283 17.5018 16.1769C16.8359 15.9553 16.2347 15.6175 15.7639 15.1898C14.194 13.763 13.3216 10.9698 15.5867 7.40056C15.7015 7.21373 18.4669 2.8243 23.7791 1.92074C31.5781 0.6194 35.9489 4.87909 37.464 6.77273C37.837 7.23834 38.1598 7.75966 38.4595 8.30412C36.5211 8.89022 34.9732 10.6165 34.7521 12.6275C34.5778 14.1691 35.2436 15.7919 36.5316 16.9695C37.5986 17.944 38.9156 18.4799 40.1784 18.4799C40.2021 18.4799 40.2246 18.4729 40.2482 18.4725C39.9349 22.3445 38.6906 26.3235 36.5466 29.5511C33.076 30.0331 29.7537 30.2546 26.5202 30.2174C27.0709 29.5765 27.6008 28.9154 28.1001 28.2395C28.7329 28.4557 29.3792 28.5636 30.0058 28.5636C31.3486 28.5636 32.6 28.0782 33.4267 27.1548C34.3339 26.1293 34.6956 24.5877 34.394 23.0304C34.1193 21.6145 33.323 20.423 32.2492 19.6855C32.6129 17.705 32.38 15.9573 31.2836 14.7286C28.7859 11.9202 24.9907 13.1784 22.2691 15.289ZM27.4091 31.6889C26.7397 32.5716 25.7196 33.3871 24.4998 33.6293C22.9216 33.9466 20.7442 33.2941 20.1423 31.8498C20.0612 31.6518 20.0215 31.4557 19.9987 31.2677C22.4339 31.5616 24.898 31.6963 27.4091 31.6889ZM31.8634 21.2521C32.3925 21.7762 32.7846 22.489 32.9434 23.3113C33.1585 24.421 32.9254 25.4922 32.3233 26.1729C31.5237 27.0658 30.1831 27.2255 29.0034 26.9534C30.2736 25.0479 31.2809 23.0856 31.8634 21.2521ZM12.0003 31.9628C12.6167 31.3139 13.9835 30.2835 16.201 30.6988C16.9751 30.8428 17.752 30.9542 18.5287 31.0676C18.543 31.5374 18.6067 31.9965 18.7778 32.4134C19.5462 34.259 21.7067 35.1855 23.6641 35.1855C24.051 35.1855 24.4307 35.1495 24.79 35.0774C26.8151 34.6755 28.3816 33.1494 29.1626 31.6791C33.665 31.5412 38.3531 30.9286 43.39 29.8324C45.6141 29.3457 47.6508 30.0686 48.808 31.7694C49.6989 33.0769 49.8221 34.6651 49.1743 35.9335C48.5499 35.8987 47.8915 35.9326 47.1954 36.0626C46.7379 36.1474 46.2791 36.2035 45.8214 36.2796C45.469 35.1162 44.7949 34.0847 43.8718 33.3927C42.5201 32.3846 40.6527 32.0685 38.8804 32.5407C37.2775 32.9697 36.0387 33.9586 35.4811 35.2503C35.207 35.8794 35.1108 36.5712 35.1734 37.2844C28.5343 37.4163 21.6558 36.6773 14.1667 35.0472C13.0104 34.7958 11.8889 34.7756 10.8332 34.9419C10.8034 33.8902 11.2055 32.7996 12.0003 31.9628ZM36.6496 37.2209C36.6032 36.8043 36.6234 36.3237 36.8353 35.8379C37.2078 34.9739 38.115 34.2746 39.2625 33.9683C40.607 33.6066 41.9985 33.8361 42.9862 34.575C43.5983 35.0338 44.0827 35.7278 44.3605 36.5103C41.8096 36.8823 39.2439 37.1179 36.6496 37.2209ZM25.3653 38.3285C27.9558 38.5901 30.4942 38.731 32.9907 38.7522C32.8727 40.0606 32.1613 41.2548 31.0929 41.8482C30.176 42.3624 29.0268 42.4346 27.9417 42.0392C26.8248 41.6356 25.935 40.8088 25.5589 39.8223C25.3774 39.3599 25.3148 38.8444 25.3653 38.3285ZM7.04379 38.8346C8.54033 36.7679 11.0853 35.8919 13.8532 36.4891C17.3206 37.2447 20.6502 37.7916 23.8978 38.1732C23.8226 38.9243 23.916 39.6786 24.1826 40.3559C24.7065 41.7304 25.9237 42.8792 27.439 43.4283C28.0674 43.6554 28.7138 43.7683 29.3488 43.7683C30.22 43.7683 31.0678 43.5556 31.8133 43.1374C33.3627 42.2762 34.3561 40.6088 34.4752 38.7584C38.8763 38.7121 43.1761 38.3085 47.4659 37.514C50.7979 36.8952 53.153 38.8069 54.0002 40.9805C54.2829 41.7094 54.3956 42.4441 54.346 43.1454C53.67 42.9472 52.9611 42.8257 52.2276 42.7809C51.1707 41.5301 49.8056 40.7085 48.3249 40.488C46.4625 40.2128 43.9752 40.8556 42.621 42.9091C42.3233 43.3498 42.1233 43.8382 41.9726 44.347C33.3311 45.6684 26.091 45.7232 19.6636 45.2001C19.6588 44.8793 19.6321 44.5598 19.5691 44.2453C19.0206 41.5562 16.6186 40.4195 16.1362 40.2164C13.9108 39.3008 10.6881 39.6576 9.10025 42.1028C8.74902 42.6357 8.51001 43.2277 8.38333 43.8682C7.68599 43.8659 7.00451 43.9288 6.35286 44.0742C5.63721 42.4402 5.88055 40.4427 7.04379 38.8346ZM49.184 43.0161C47.2779 43.4305 45.4449 43.7769 43.6618 44.0778C43.7238 43.9612 43.774 43.8397 43.8489 43.7287C44.8486 42.2123 46.7062 41.7353 48.1085 41.9492C48.8334 42.0567 49.5377 42.3882 50.1739 42.8616C49.8454 42.9045 49.5173 42.9432 49.184 43.0161ZM46.2008 45.1273C45.9077 46.7479 45.0915 48.1828 43.9103 49.0758C41.2872 51.0524 37.4662 50.2677 35.677 48.3211C35.2559 47.8681 34.897 47.2931 34.6342 46.6963C38.2186 46.4137 42.0557 45.9122 46.2008 45.1273ZM9.96305 43.9858C9.93962 43.982 9.91688 43.9826 9.89355 43.979C9.98973 43.5972 10.123 43.234 10.3356 42.9129C11.4507 41.1922 13.875 40.8834 15.5698 41.5791C15.7878 41.6717 17.7134 42.5356 18.1219 44.5387C18.1566 44.7115 18.1732 44.8914 18.183 45.0719C15.3042 44.7946 12.5823 44.4111 9.96305 43.9858ZM2.68015 48.1049C3.98445 46.3181 6.04583 45.3304 8.36068 45.3304C8.80769 45.3304 9.26424 45.3676 9.72631 45.4421C9.78734 45.4521 9.85014 45.4612 9.91137 45.4711C10.1359 46.1031 10.2293 46.764 10.1595 47.367C10.0111 48.6335 9.15143 49.8555 7.80146 50.7194C6.21839 51.7323 4.27779 52.0507 2.75122 51.552C2.32696 51.4079 1.91569 51.1864 1.52696 50.9307C1.65355 49.9575 2.03903 48.9818 2.68015 48.1049ZM2.00133 53.8629C1.80603 53.4782 1.67599 53.0696 1.59006 52.6511C1.8201 52.7591 2.04877 52.8732 2.28552 52.9533C2.90971 53.1576 3.58145 53.2561 4.27179 53.2561C5.73408 53.2561 7.27512 52.8091 8.59753 51.9632C10.3218 50.859 11.4254 49.2464 11.6262 47.5389C11.6938 46.953 11.6452 46.3339 11.5115 45.7216C17.826 46.6784 24.7784 47.3199 33.0905 46.7987C33.4185 47.7238 33.9412 48.6208 34.5921 49.3233C36.034 50.8902 38.1609 51.7048 40.2792 51.7048C41.8954 51.7048 43.5055 51.2302 44.7996 50.2533C46.4405 49.0134 47.4856 47.0528 47.7362 44.8175C48.3221 44.6989 48.8995 44.5881 49.4978 44.4581H49.499C52.7408 43.7563 55.7497 44.6923 57.5388 46.9694C58.3288 47.9736 58.7779 49.1221 58.8898 50.2727C56.0901 49.0414 52.2669 49.2407 50.0252 51.8335C48.7327 53.3373 48.0971 55.4741 48.318 57.3272H28.5591C28.586 56.2832 28.3695 55.2783 27.9009 54.3857C27.0989 52.8489 25.6246 51.7554 23.7494 51.3084C21.637 50.8014 19.3931 51.2039 17.7475 52.3814C16.0967 53.566 15.031 55.4752 14.9274 57.3271H9.87111C5.93046 57.3271 3.13621 56.0966 2.00133 53.8629ZM16.4102 57.3271C16.5178 55.9461 17.3559 54.4791 18.6072 53.5817C19.8893 52.6649 21.7278 52.3417 23.4064 52.7442C24.8597 53.0915 25.9909 53.917 26.593 55.0693C26.9438 55.7384 27.1059 56.5233 27.0818 57.3271H16.4102ZM49.7972 57.2931C49.5709 55.824 50.0922 54.0212 51.1439 52.7983C53.0114 50.6366 56.4969 50.6163 58.8086 51.9014C58.7206 52.3394 58.5906 52.7698 58.3918 53.1792C57.1723 55.6881 54.1266 57.1227 49.7972 57.2931Z" fill="#0B0C0C"/>
</svg>
