<svg width="62" height="60" viewBox="0 0 62 60" fill="none" xmlns="http://www.w3.org/2000/svg">
<path fill-rule="evenodd" clip-rule="evenodd" d="M21.6543 6.16943C20.0143 6.16943 18.6861 7.49693 18.6861 9.13606C18.6861 10.7752 20.0143 12.1027 21.6543 12.1027C23.2943 12.1027 24.6261 10.7752 24.6261 9.13606C24.6261 7.49706 23.2943 6.16943 21.6543 6.16943Z" fill="#DC72A9"/>
<path fill-rule="evenodd" clip-rule="evenodd" d="M46.8984 37.9672C43.3386 37.9672 40.4554 40.8489 40.4554 44.4067C40.4554 47.961 43.3386 50.8427 46.8984 50.8427C50.4546 50.8427 53.3378 47.9609 53.3378 44.4067C53.3378 40.8489 50.4545 37.9672 46.8984 37.9672Z" fill="white"/>
<path fill-rule="evenodd" clip-rule="evenodd" d="M44.1498 31.1346V32.5754C42.8038 32.8906 41.5429 33.4251 40.4094 34.1437L39.3928 33.1312C38.7871 32.5223 37.7918 32.5223 37.1825 33.1312L35.5709 34.7419C34.9616 35.3508 34.9616 36.3457 35.5709 36.9509L36.598 37.9811C35.8931 39.1103 35.3689 40.3636 35.0643 41.7018H33.6191C32.7584 41.7018 32.0571 42.4063 32.0571 43.2631V45.5465C32.0571 46.4032 32.7585 47.1077 33.6191 47.1077H35.0679C35.376 48.453 35.9074 49.7132 36.6229 50.8461L35.5993 51.8657C34.9936 52.4746 34.9936 53.4695 35.5993 54.0747L37.2144 55.6891C37.82 56.298 38.8154 56.298 39.4246 55.6891L40.4448 54.6694C41.5818 55.3811 42.8463 55.9156 44.1923 56.2201V57.6751C44.1923 58.5353 44.8971 59.2398 45.7543 59.2398H48.0389C48.896 59.2398 49.6009 58.5353 49.6009 57.6751V56.2237C50.9539 55.9157 52.2184 55.3847 53.3554 54.6696L54.379 55.6892C54.9846 56.2981 55.98 56.2981 56.5893 55.6892L58.2009 54.0748C58.8101 53.4695 58.8101 52.4747 58.2009 51.8658L57.1808 50.8462C57.8928 49.7133 58.424 48.4531 58.7321 47.1078H60.1738C61.0345 47.1078 61.7394 46.4033 61.7394 45.5466V43.2632C61.7394 42.4064 61.0345 41.7019 60.1738 41.7019H58.7393C58.4311 40.3496 57.8998 39.0822 57.1808 37.9423L58.2009 36.9192C58.8101 36.3138 58.8101 35.3191 58.2009 34.7102L57.1808 33.6906L56.5893 33.0993C55.98 32.4905 54.9848 32.4905 54.379 33.0993L53.3554 34.1189C52.2043 33.3967 50.9255 32.8587 49.5584 32.5542V31.1346C49.5584 30.2743 48.8535 29.5698 47.9928 29.5698H45.7118C44.8511 29.5698 44.1498 30.2743 44.1498 31.1346ZM46.8984 37.9671C50.4546 37.9671 53.3378 40.8488 53.3378 44.4066C53.3378 47.9609 50.4545 50.8426 46.8984 50.8426C43.3386 50.8426 40.4554 47.9608 40.4554 44.4066C40.4554 40.8488 43.3386 37.9671 46.8984 37.9671Z" fill="#CCF5FC"/>
<path fill-rule="evenodd" clip-rule="evenodd" d="M52.5266 0.76001H10.3057H4.91475C2.35387 0.76001 0.260498 3.25938 0.260498 6.31801V17.42H19.8656H57.1809V6.31813C57.1809 3.26288 55.0875 0.76001 52.5266 0.76001ZM21.6544 6.16939C23.2944 6.16939 24.6261 7.49689 24.6261 9.13601C24.6261 10.7751 23.2944 12.1026 21.6544 12.1026C20.0144 12.1026 18.6861 10.7751 18.6861 9.13601C18.6861 7.49701 20.0144 6.16939 21.6544 6.16939ZM10.6954 6.16939C12.3354 6.16939 13.6671 7.49689 13.6671 9.13601C13.6671 10.7751 12.3354 12.1026 10.6954 12.1026C9.05537 12.1026 7.72712 10.7751 7.72712 9.13601C7.72712 7.49701 9.05537 6.16939 10.6954 6.16939ZM33.5238 9.13601C33.5238 7.50401 34.8591 6.16939 36.492 6.16939H47.6706C49.3035 6.16939 50.6389 7.50401 50.6389 9.13601C50.6389 10.768 49.3035 12.1026 47.6706 12.1026H36.492C34.859 12.1028 33.5238 10.7681 33.5238 9.13601Z" fill="#8AA8BD"/>
<path fill-rule="evenodd" clip-rule="evenodd" d="M19.8656 17.42H0.260498V41.5498C0.260498 44.6049 2.35737 47.1078 4.91475 47.1078H33.6192C32.7585 47.1078 32.0572 46.4033 32.0572 45.5465V43.2632C32.0572 42.4064 32.7586 41.7019 33.6192 41.7019H35.0644C35.369 40.3638 35.8932 39.1105 36.5981 37.9812L35.571 36.951C34.9617 36.3457 34.9617 35.3509 35.571 34.742L37.1826 33.1313C37.7919 32.5224 38.7871 32.5224 39.3929 33.1313L40.4095 34.1438C41.543 33.4252 42.8039 32.8905 44.1499 32.5755V31.1347C44.1499 30.2744 44.8513 29.5699 45.7119 29.5699H47.9929C48.8536 29.5699 49.5585 30.2744 49.5585 31.1347V32.5543C50.9257 32.8588 52.2044 33.3968 53.3555 34.119L54.3791 33.0994C54.9847 32.4905 55.9801 32.4905 56.5894 33.0994L57.1809 33.6907V17.42H19.8656Z" fill="white"/>
</svg>
