<svg width="63" height="63" viewBox="0 0 63 63" fill="none" xmlns="http://www.w3.org/2000/svg">
<path d="M62.0772 33.6042C62.0772 24.8726 58.1468 17.059 51.9588 11.8361C47.0026 7.65273 33.0787 7.17358 33.0787 7.17358L22.9874 7.23179C22.9124 7.26353 22.8217 7.24151 22.747 7.27387C12.8562 11.566 6.43774 21.7357 6.43774 33.5573C6.43774 49.2824 18.162 59.9828 33.8872 59.9828C38.6149 59.9828 42.7905 60.9249 46.7144 58.8859C55.8423 54.1429 62.0772 44.6016 62.0772 33.6042Z" fill="#94CCD4"/>
<path d="M51.959 11.8359C49.0637 13.7296 45.9555 15.6085 44.7903 15.8633C41.5923 16.7984 37.4296 14.8174 36.5744 19.5337C36.5498 20.4443 36.4699 21.3093 36.3333 22.1165C36.1807 23.0172 35.846 23.865 35.36 24.618C34.8739 25.3711 33.5803 25.5908 32.8273 26.1076C30.754 27.5325 29.0693 27.6179 26.8373 26.4551C26.7806 26.4256 26.7228 26.3948 26.665 26.3641C22.9465 24.5417 20.7621 20.3508 24.6171 17.2881C27.1507 15.1963 26.7675 11.5065 24.9968 9.20063L23.9313 7.9677C24.7585 7.626 24.4217 6.6292 25.286 6.36551C27.9174 5.56275 30.7104 5.1311 33.604 5.1311C40.5981 5.1311 47.0027 7.65233 51.959 11.8359Z" fill="#B7E546"/>
<path d="M55.6868 26.5561C55.671 24.2058 54.722 21.9565 53.0482 20.3052C51.6203 18.6714 51.1264 17.698 49.1638 19.5017C47.3035 21.8156 49.1383 24.6875 45.1844 28.6334C44.4842 29.3462 44.0913 30.3219 44.1308 31.3222C44.1293 31.322 44.1299 31.1455 44.1286 31.1453C44.2707 33.6228 45.9629 35.62 48.3749 35.62C51.4732 35.6199 55.6868 31.9828 55.6868 26.5561Z" fill="#B7E546"/>
<path d="M46.7725 28.4496C46.0724 29.1633 45.6787 30.139 45.718 31.1394C45.7168 31.1382 45.7168 31.137 45.7156 31.137C45.8337 33.1881 47.6117 34.9145 49.5891 35.4485C49.1744 35.5617 48.7659 35.6196 48.3746 35.6196C45.9629 35.6196 43.3974 33.6151 43.2546 31.137C43.2559 31.137 43.2559 31.1382 43.2571 31.1394C43.2177 30.139 43.6115 29.1633 44.3116 28.4496C48.2651 24.5047 45.974 21.4224 47.8344 19.1091C48.9554 18.078 50.0321 18.0829 51.014 18.5813C50.7765 18.7129 50.5378 18.8864 50.2954 19.1091C48.4349 21.4224 50.726 24.5047 46.7725 28.4496Z" fill="#ABD641"/>
<path d="M58.3615 3.07629V17.2889L57.4559 18.1488C57.4559 19.338 56.1039 19.5172 54.9145 19.5172L48.4141 19.4684C48.1116 19.4684 47.8168 19.5638 47.5719 19.7413L42.2077 23.466C41.7331 23.8098 41.0688 23.4707 41.0688 22.8848L41.5723 21.0933C41.5723 20.3004 40.9295 19.6577 40.1367 19.6577H38.414C37.2248 19.6577 36.2606 18.6937 36.2606 17.5043L36.001 4.17129C36.001 2.98204 36.4734 1.7277 37.6626 1.7277L38.2628 0.922852H56.2081C57.3975 0.922852 58.3615 1.88692 58.3615 3.07629Z" fill="#DC4955"/>
<path d="M58.3615 17.2889V18.0068C58.3615 19.1962 57.3974 20.1602 56.2081 20.1602H48.5016C48.1987 20.1602 47.9044 20.2565 47.6604 20.433L41.8417 24.6465C41.368 24.9911 40.7033 24.6523 40.7033 24.0651V21.5958C40.7033 20.8029 40.0605 20.1602 39.2677 20.1602H37.5449C36.3557 20.1602 35.3915 19.1962 35.3915 18.0068V3.07629C35.3915 1.88705 36.3556 0.922852 37.5449 0.922852H38.2628V17.0019C38.2628 17.1605 38.3914 17.2889 38.5498 17.2889H39.2677C40.9201 17.2889 42.3577 18.2235 43.0796 19.593C43.2026 19.8264 43.501 19.9001 43.7147 19.7452L45.9749 18.1072C46.7143 17.5717 47.5885 17.2889 48.5015 17.2889H58.3615Z" fill="#D82F3C"/>
<path d="M40.3717 59.5892C24.2698 59.5892 11.2158 46.5733 11.2158 30.5181C11.2158 20.9561 15.5997 12.5723 22.7475 7.27393C12.408 11.5418 5.1311 21.7233 5.1311 33.6041C5.1311 38.4456 6.33942 43.0049 8.47109 46.9968C8.47109 46.9968 15.2373 52.3555 18.6588 54.8735C23.3786 58.3471 32.5495 60.5877 32.5495 60.5877C32.5495 60.5877 42.754 60.9339 46.6669 58.9086C44.639 59.3541 42.5337 59.5892 40.3717 59.5892Z" fill="#6FBBC6"/>
<path d="M46.7129 58.883C44.4249 55.6962 40.2169 52.1829 40.3978 47.9515C40.4594 46.5089 40.2691 45.0615 39.7941 43.6973C39.7866 43.6788 39.7806 43.6607 39.7745 43.6428C39.5344 42.9671 39.1736 42.3419 38.7243 41.7846C37.4843 40.2441 34.8381 36.2249 33.5443 35.6613C31.0737 34.1332 27.7287 35.2711 26.407 37.7802C25.2597 40.6825 24.9432 44.6591 21.9462 46.2245C20.1546 47.1961 17.5725 46.9778 16.2096 45.3691C13.845 42.2979 10.5344 45.2675 8.47388 46.9955C9.29263 48.5251 12.6332 49.6465 13.7136 51.0032C18.1962 56.6339 22.1857 58.8045 28.7541 59.9831C34.8636 61.0918 41.1329 61.7813 46.6463 58.9168C46.6685 58.9052 46.6908 58.8944 46.7129 58.883Z" fill="#B7E546"/>
<path d="M46.6557 58.9111C41.7609 61.4578 36.1087 62.4965 30.6251 61.9209V61.9196C21.3574 61.0134 12.8044 55.2323 8.47424 46.9953C10.1034 45.6282 12.5163 43.4835 14.6241 44.1689C19.5275 53.3445 29.2187 59.5891 40.3717 59.5891C42.5299 59.5891 44.6316 59.3553 46.6557 58.9111Z" fill="#ABD641"/>
<path d="M53.0055 34.2595V48.4722L52.0998 49.332C52.0998 50.5213 50.7478 50.7004 49.5584 50.7004L43.058 50.6516C42.7555 50.6516 42.4607 50.7471 42.2159 50.9245L36.8516 54.6492C36.377 54.993 35.7127 54.6539 35.7127 54.068L36.2162 52.2765C36.2162 51.4836 35.5734 50.8409 34.7806 50.8409H33.0578C31.8686 50.8409 30.9044 49.8769 30.9044 48.6875L30.6448 35.3546C30.6448 34.1654 31.1172 32.911 32.3064 32.911L32.9066 32.1062H50.8519C52.0413 32.1061 53.0055 33.0703 53.0055 34.2595Z" fill="#FFBF54"/>
<path d="M53.0055 48.4722V49.19C53.0055 50.3793 52.0415 51.3435 50.8521 51.3435H43.1457C42.8427 51.3435 42.5484 51.4397 42.3044 51.6163L36.4858 55.8298C36.012 56.1743 35.3473 55.8355 35.3473 55.2484V52.7791C35.3473 51.9861 34.7045 51.3435 33.9117 51.3435H32.189C30.9997 51.3435 30.0355 50.3794 30.0355 49.19V34.2595C30.0355 33.0703 30.9996 32.1061 32.189 32.1061H32.9068V48.1851C32.9068 48.3437 33.0354 48.4722 33.1939 48.4722H33.9117C35.5641 48.4722 37.0017 49.4067 37.7236 50.7762C37.8467 51.0096 38.145 51.0834 38.3588 50.9284L40.6189 49.2904C41.3583 48.7549 42.2325 48.4722 43.1456 48.4722H53.0055Z" fill="#FFA442"/>
<path d="M25.5519 18.8779L25.5162 18.9074C25.0413 19.2852 23.3924 20.7949 22.2235 22.0894C21.7535 20.3138 22.162 18.4288 23.9855 16.9805C26.5191 14.8887 25.5839 10.8134 23.8133 8.50748L22.7469 7.27394C23.5738 6.93187 24.4211 6.62855 25.2861 6.36523C26.0515 7.52803 26.7319 8.50748 26.7319 8.50748C28.5666 11.9245 28.649 16.3222 25.5519 18.8779Z" fill="#ABD641"/>
<path d="M35.4633 24.4507C35.4301 24.5073 35.3956 24.5627 35.36 24.618C34.8739 25.3711 34.239 26.0282 33.486 26.545C31.4126 27.9698 28.724 28.1298 26.492 26.967C26.4354 26.9375 26.3775 26.9067 26.3197 26.876C22.8202 25.1607 20.427 20.6239 23.369 17.5428C22.4326 20.3705 24.6438 23.6349 27.6203 25.0302C27.6806 25.061 27.7409 25.0918 27.8 25.1213C30.1329 26.2841 32.9433 26.1241 35.1102 24.6993C35.2308 24.6205 35.3489 24.5381 35.4633 24.4507Z" fill="#ABD641"/>
<path d="M30.3141 61.8859C30.3222 61.8868 30.3303 61.8878 30.3385 61.8887C30.3303 61.8878 30.3222 61.8869 30.3141 61.8859Z" fill="#94CCD4"/>
<path d="M21.4883 59.3744C21.5162 59.3876 21.5444 59.4004 21.5723 59.4134C21.5443 59.4004 21.5162 59.3876 21.4883 59.3744Z" fill="#94CCD4"/>
<path d="M46.6667 58.9087C46.1585 59.172 45.643 59.4193 45.1176 59.6507C45.6344 59.4218 46.1438 59.1769 46.6458 58.9161C46.6495 58.9148 46.6519 58.9124 46.6556 58.9112C46.6593 58.9099 46.663 58.9099 46.6667 58.9087Z" fill="#94CCD4"/>
<path d="M1.9137 17.7806L2.09433 30.1636C2.09433 31.3763 3.0824 32.3593 4.3013 32.3593L11.2295 32.5857C11.5394 32.5857 11.8415 32.6832 12.0925 32.864L16.8208 36.8613C17.3072 37.2119 17.988 36.8661 17.988 36.2686L18.2868 34.3362C18.2868 33.5278 18.9455 32.8724 19.7581 32.8724L22.0448 32.864C23.2637 32.864 24.4639 32.5746 24.4639 31.362V16.1385C24.4639 14.9259 23.4758 13.9429 22.2569 13.9429H3.12977C1.91087 13.9429 1.9137 16.568 1.9137 17.7806Z" fill="#FAF8F8"/>
<path d="M24.4642 31.0963V31.3621C24.4642 32.5741 23.4761 33.5573 22.2567 33.5573H20.491C19.6789 33.5573 19.0206 34.2131 19.0206 35.0215V37.5403C19.0206 38.1371 18.3389 38.4829 17.8529 38.1322L11.8912 33.8354C11.6402 33.6545 11.3375 33.5573 11.0275 33.5573H3.13031C1.91092 33.5573 0.922852 32.5741 0.922852 31.3621V16.1388C0.922852 14.9255 1.91092 13.9424 3.13031 13.9424H3.38379V30.4811C3.38379 30.8208 3.65929 31.0963 3.99902 31.0963H11.0275C11.8543 31.0963 12.6603 31.3572 13.3297 31.8396L16.0798 33.8218C16.3431 34.0113 16.7098 33.8957 16.8279 33.5942C17.4013 32.1336 18.8274 31.0963 20.491 31.0963H24.4642Z" fill="#F0E9E6"/>
<path d="M59.2948 19.3075C59.3945 19.0034 59.4491 18.679 59.4491 18.3421V3.1185C59.4491 1.39892 58.045 0 56.3193 0H37.1921C35.4664 0 34.0623 1.39892 34.0623 3.1185V4.21386C29.9362 4.13118 25.6475 4.98746 21.8558 6.65031C18.3844 8.16539 15.2805 10.3086 12.6217 13.0198H9.35156C8.8419 13.0198 8.42871 13.433 8.42871 13.9427C8.42871 14.4523 8.8419 14.8655 9.35156 14.8655H22.257C22.965 14.8655 23.5411 15.4366 23.5411 16.1383V31.3618C23.5411 32.0637 22.965 32.6347 22.257 32.6347H20.4914C19.1712 32.6347 18.0971 33.7054 18.0971 35.0214V37.171L12.4303 33.0873C12.0196 32.7913 11.5345 32.6349 11.0277 32.6349H3.12982C2.42181 32.6349 1.8457 32.0638 1.8457 31.3619V16.1385C1.8457 15.4366 2.42181 14.8657 3.12982 14.8657H5.04492C5.55458 14.8657 5.96777 14.4525 5.96777 13.9428C5.96777 13.4332 5.55458 13.02 5.04492 13.02H3.12982C1.40409 13.02 0 14.4189 0 16.1385V31.3619C0 33.0815 1.40409 34.4806 3.12982 34.4806H4.2226C4.44138 42.004 7.47325 49.0453 12.8183 54.3903C18.3704 59.9423 25.7524 63 33.6042 63C37.6866 63 41.6383 62.1788 45.35 60.5592C48.9349 58.9951 52.1294 56.763 54.8451 53.9252C55.1975 53.5569 55.1847 52.9728 54.8164 52.6204C54.448 52.268 53.864 52.2808 53.5116 52.649C51.4839 54.7679 49.1834 56.5173 46.6872 57.8686C45.5143 56.3076 43.7932 54.4294 42.6426 52.6292L42.8626 52.4706C42.9571 52.4025 43.069 52.3665 43.186 52.3665H51.0839C52.8096 52.3665 54.2137 50.9676 54.2137 49.248V34.0246C54.2137 33.8184 54.193 33.6173 54.1545 33.4222C55.7406 31.5237 56.6094 29.1037 56.6094 26.5498C56.5971 24.7338 56.084 22.9791 55.1419 21.4606H56.3192C56.9669 21.4606 57.5693 21.2635 58.0693 20.9263C60.0906 24.8236 61.1543 29.1802 61.1543 33.6042C61.1543 39.3009 59.4309 44.7674 56.1704 49.4128C55.8776 49.8299 55.9783 50.4055 56.3956 50.6983C56.671 50.8961 57.2631 50.9754 57.6811 50.4731C61.1607 45.5155 63 39.6824 63 33.6042C63 28.5915 61.7201 23.6587 59.2948 19.3075ZM22.257 13.02H15.291C17.4583 11.0838 19.8801 9.5269 22.4802 8.37949L23.0971 9.09132C24.1328 10.451 24.7793 12.4029 24.5673 14.0371C23.9946 13.4125 23.171 13.02 22.257 13.02ZM43.7503 57.1464C44.1915 57.6839 44.6158 58.2013 45.0054 58.7064C41.4777 60.3106 37.6136 61.1543 33.6042 61.1543C23.2781 61.1543 14.2625 55.4428 9.54573 47.0141C10.8468 45.941 12.5228 44.6369 13.8618 44.7921C14.4083 44.8556 14.8921 45.1749 15.3409 45.7688C16.4638 47.2532 18.3587 47.5425 19.6863 47.631C21.6686 47.5084 23.435 46.4958 24.5379 44.8633C24.8262 44.4429 24.7193 43.8685 24.2989 43.5802C23.8786 43.2918 23.3042 43.399 23.0159 43.8192C22.2229 44.9754 21.1755 45.6009 19.7249 45.7834C18.2183 45.6728 17.3182 45.3235 16.813 44.6554C16.0549 43.6526 15.1337 43.0817 14.0747 42.9586C12.1201 42.7321 10.1978 44.1054 8.68096 45.3366C7.11531 42.0241 6.1911 38.3519 6.06941 34.4804H11.0276C11.1447 34.4804 11.2566 34.5164 11.3511 34.5845L17.3131 38.8811C17.6025 39.0897 17.9416 39.1957 18.283 39.1957C18.5414 39.1957 18.8011 39.1349 19.0414 39.012C19.5974 38.7274 19.9427 38.1634 19.9427 37.5398V35.0214C19.9427 34.7231 20.1888 34.4804 20.4912 34.4804H22.2568C23.9826 34.4804 25.3867 33.0814 25.3867 31.3618V27.4235C26.4851 28.1008 28.2249 28.7022 29.6411 28.6636C31.1726 28.6636 32.6968 28.2069 34.0086 27.3059C35.7206 26.1301 36.8994 24.2947 37.2428 22.2705C37.2874 22.0077 37.3264 21.737 37.3599 21.4605H38.9576C39.2601 21.4605 39.506 21.7031 39.506 22.0014V24.5198C39.506 25.1433 39.8514 25.7074 40.4074 25.9921C40.8764 26.2116 41.448 26.286 42.1356 25.8613L45.9345 23.1236C45.7877 24.5528 45.4033 26.0565 43.6528 27.8034C42.8308 28.6403 42.3589 29.7581 42.3338 30.9058H31.9566C30.2309 30.9058 28.8268 32.3048 28.8268 34.0244V34.4233C27.1135 35.0765 25.7418 36.5181 25.127 38.334C24.993 38.73 24.7832 39.4044 24.5883 40.0486C24.4393 40.5359 24.7136 41.0519 25.201 41.2009C25.5726 41.3052 26.0987 41.1765 26.3533 40.5882C26.4841 40.1603 26.6635 39.5635 26.8754 38.9258C27.2308 37.8759 27.9336 37.005 28.8269 36.4679V49.2478C28.8269 50.9674 30.231 52.3663 31.9568 52.3663H33.7224C34.0248 52.3663 34.2708 52.6089 34.2708 52.9072V55.4255C34.2708 56.049 34.6162 56.613 35.1721 56.8977C35.4124 57.0208 35.672 57.0814 35.9305 57.0814C36.272 57.0814 36.6112 56.9754 36.9005 56.7669L41.1442 53.7089C41.9223 54.9169 42.8482 56.048 43.7503 57.1464ZM52.3683 49.2479C52.3683 49.9498 51.7922 50.5207 51.0841 50.5207H43.1863C42.6793 50.5207 42.1943 50.6772 41.7836 50.9733L36.1167 55.0571V52.9073C36.1167 51.5913 35.0426 50.5207 33.7226 50.5207H31.957C31.249 50.5207 30.6729 49.9496 30.6729 49.2479V34.0246C30.6729 33.3227 31.249 32.7516 31.957 32.7516H43.3554C43.3564 32.7516 43.3573 32.7519 43.3583 32.7519C43.3596 32.7519 43.361 32.7516 43.3623 32.7516H51.0843C51.7923 32.7516 52.3684 33.3227 52.3684 34.0246L52.3683 49.2479ZM54.764 26.5561C54.764 28.4308 54.1983 30.2176 53.1575 31.6911C52.6049 31.2031 51.8789 30.9059 51.0841 30.9059H44.1805C44.2051 30.2394 44.4856 29.5897 44.9633 29.1035C47.5624 26.5098 47.7204 24.2113 47.8473 22.3645C47.8628 22.1376 47.8784 21.9197 47.8976 21.709L48.0977 21.5648C48.1923 21.4967 48.3041 21.4606 48.4213 21.4606H52.8623C54.0777 22.8835 54.7512 24.6821 54.764 26.5561ZM56.3193 19.6149H48.4214C47.9146 19.6149 47.4295 19.7713 47.0188 20.0673L46.4674 20.4647C46.4653 20.4661 46.4632 20.4676 46.4611 20.4691L41.3519 24.1511V22.0014C41.3519 20.6854 40.2778 19.6148 38.9577 19.6148H37.1921C36.4841 19.6148 35.908 19.0437 35.908 18.342V14.8887C35.908 14.379 35.4948 13.9658 34.9852 13.9658C34.4755 13.9658 34.0623 14.379 34.0623 14.8887V18.342C34.0623 19.4636 34.6598 20.4483 35.554 20.9978C35.5188 21.3293 35.4758 21.6526 35.4232 21.962C35.163 23.4967 34.2665 24.8899 32.9638 25.7846C30.6656 27.4022 27.5691 26.9938 25.3868 25.1876V16.8431C27.3669 14.2317 26.3762 10.0779 24.2951 7.65524C27.266 6.58965 30.7171 5.98906 34.0622 6.05944V10.582C34.0622 11.0917 34.4754 11.5049 34.9851 11.5049C35.4947 11.5049 35.9079 11.0917 35.9079 10.582V3.1185C35.9079 2.41664 36.484 1.8457 37.192 1.8457H56.3192C57.0272 1.8457 57.6033 2.41676 57.6033 3.1185V18.342C57.6034 19.0438 57.0273 19.6149 56.3193 19.6149Z" fill="black"/>
<path d="M52.4558 6.12195H47.6785V4.55273C47.6785 4.04307 47.2654 3.62988 46.7557 3.62988C46.246 3.62988 45.8328 4.04307 45.8328 4.55273V6.12195H41.0555C40.5459 6.12195 40.1327 6.53514 40.1327 7.0448C40.1327 7.55446 40.5459 7.96765 41.0555 7.96765H42.969C43.4121 9.93161 44.2886 11.7377 45.5092 13.2738C44.5752 14.1655 43.4824 14.9048 42.2639 15.4479L40.9924 16.0146C40.5268 16.222 40.3176 16.7676 40.5251 17.2331C40.6782 17.5766 41.0153 17.7805 41.3686 17.7805C41.4941 17.7805 41.6217 17.7548 41.7436 17.7004L43.0151 17.1338C44.4177 16.5087 45.6772 15.6601 46.7557 14.6368C47.8342 15.6601 49.0937 16.5087 50.4963 17.1338L51.7678 17.7004C52.0921 17.8348 52.7005 17.7971 52.9863 17.2331C53.1937 16.7676 52.9846 16.222 52.519 16.0146L51.2475 15.4479C50.0289 14.9049 48.9362 14.1655 48.0022 13.2738C49.2228 11.7377 50.0991 9.93161 50.5422 7.96765H52.4557C52.9654 7.96765 53.3786 7.55446 53.3786 7.0448C53.3786 6.53514 52.9655 6.12195 52.4558 6.12195ZM46.7557 11.8674C45.8909 10.7123 45.2457 9.39254 44.8688 7.96765H48.6425C48.2656 9.39254 47.6205 10.7123 46.7557 11.8674Z" fill="black"/>
<path d="M7.99599 30.1486C8.47292 30.3285 9.00547 30.0878 9.18524 29.611L9.98615 27.4888H15.3934L16.2027 29.6137C16.343 29.982 16.6934 30.2084 17.0653 30.2084C17.1744 30.2084 17.2855 30.1888 17.3936 30.1477C17.8699 29.9663 18.1088 29.4332 17.9275 28.9569L13.7692 18.0387C13.7665 18.0317 13.7638 18.0246 13.761 18.0176C13.5799 17.575 13.1539 17.2888 12.6757 17.2883C12.6752 17.2883 12.675 17.2883 12.6745 17.2883C12.1969 17.2883 11.7708 17.5737 11.589 18.0154C11.5855 18.0238 11.5822 18.0323 11.5789 18.0409L7.4584 28.9596C7.27838 29.4361 7.51906 29.9687 7.99599 30.1486ZM12.6773 20.3574L14.6905 25.6431H10.6826L12.6773 20.3574Z" fill="black"/>
<path d="M48.5895 36.0527H44.2962C43.7866 36.0527 43.3734 36.4659 43.3734 36.9756C43.3734 37.4852 43.7866 37.8984 44.2962 37.8984H45.5199V40.79H41.8491C42.0636 40.3533 42.1843 39.8626 42.1843 39.3442C42.1843 37.5293 40.7077 36.0527 38.8928 36.0527H36.2281C35.7184 36.0527 35.3052 36.4659 35.3052 36.9756C35.3052 37.4852 35.7184 37.8984 36.2281 37.8984H38.8928C39.69 37.8984 40.3386 38.547 40.3386 39.3442C40.3386 40.1415 39.69 40.79 38.8928 40.79H35.9319C35.4222 40.79 35.009 41.2032 35.009 41.7129C35.009 42.2226 35.4222 42.6357 35.9319 42.6357H38.8928C39.69 42.6357 40.3386 43.2843 40.3386 44.0815C40.3386 44.8923 39.7035 45.5273 38.8928 45.5273C37.6177 45.5273 36.1704 45.3836 35.104 44.3173C34.7436 43.9569 34.1593 43.9569 33.799 44.3173C33.4386 44.6777 33.4386 45.2621 33.799 45.6223C35.3507 47.1741 37.3363 47.373 38.8928 47.373C40.7077 47.373 42.1843 45.8965 42.1843 44.0815C42.1843 43.5631 42.0636 43.0724 41.8491 42.6357H45.5199V46.4502C45.5199 46.9599 45.9331 47.373 46.4428 47.373C46.9525 47.373 47.3656 46.9599 47.3656 46.4502V37.8984H48.5893C49.099 37.8984 49.5122 37.4852 49.5122 36.9756C49.5122 36.4659 49.0991 36.0527 48.5895 36.0527Z" fill="black"/>
</svg>
