<svg width="64" height="62" viewBox="0 0 64 62" fill="none" xmlns="http://www.w3.org/2000/svg">
<path d="M61.1739 41.4415H60.7059C60.4608 40.6475 60.1431 39.881 59.7556 39.1485L60.0896 38.8134C60.623 38.2833 60.9174 37.5754 60.9185 36.8201C60.9196 36.0631 60.6263 35.3524 60.0923 34.8185L59.4415 34.1681V7.31814C59.4415 3.55826 56.7882 0.499512 53.5267 0.499512H5.91475C2.65325 0.499512 0 3.55826 0 7.31814V42.5498C0 46.3096 2.65325 49.3684 5.91475 49.3684H13.3105C14.0066 49.3684 14.571 48.804 14.571 48.1079C14.571 47.4118 14.0066 46.8474 13.3105 46.8474H5.91475C4.07525 46.8474 2.52113 44.8793 2.52113 42.5499V19.6806H56.9202V32.4188C56.7766 32.3966 56.6311 32.3821 56.483 32.3821C56.4815 32.3821 56.48 32.3821 56.4786 32.3821C55.7234 32.3834 55.0155 32.6774 54.4895 33.2063L54.1488 33.5455C53.4009 33.1504 52.622 32.829 51.8189 32.5836V32.1346C51.8189 30.5766 50.5511 29.3093 48.9927 29.3093H46.7116C45.1552 29.3093 43.8891 30.5766 43.8891 32.1346V32.6144C43.1011 32.862 42.3402 33.1806 41.613 33.5676L41.2865 33.2421C40.7562 32.7093 40.0482 32.415 39.293 32.4139C39.2916 32.4139 39.2902 32.4139 39.2887 32.4139C38.5334 32.4139 37.8241 32.707 37.2912 33.2395L35.6796 34.8504C35.1456 35.3841 34.8522 36.095 34.8534 36.8519C34.8545 37.6071 35.1487 38.315 35.6781 38.841L36.0262 39.1901C35.6484 39.9114 35.338 40.6638 35.0979 41.4413H34.6191C33.0626 41.4413 31.7965 42.707 31.7965 44.263V46.5464C31.7965 46.6479 31.8021 46.7481 31.8126 46.8469H24.4783C23.7821 46.8469 23.2178 47.4113 23.2178 48.1074C23.2178 48.8035 23.7821 49.3679 24.4783 49.3679H34.619H35.1026C35.3464 50.1528 35.6615 50.9111 36.0459 51.6371L35.7052 51.9763C34.6086 53.0788 34.6096 54.8686 35.7079 55.966L37.3204 57.5779C37.8506 58.1108 38.5586 58.405 39.3139 58.4061H39.318C40.0735 58.4061 40.7827 58.113 41.3156 57.5804L41.6533 57.243C42.3858 57.6291 43.1474 57.9446 43.9314 58.187V58.6749C43.9314 60.2329 45.1975 61.5003 46.754 61.5003H49.0386C50.595 61.5003 51.8611 60.2329 51.8611 58.6749V58.19C52.6525 57.9459 53.4173 57.6291 54.1489 57.2429L54.485 57.5778C55.0151 58.1108 55.723 58.4049 56.4782 58.4061H56.4826C57.238 58.4061 57.9472 58.113 58.4811 57.5795L60.0892 55.9686C60.6226 55.4385 60.917 54.7306 60.9181 53.9754C60.9193 53.2184 60.6259 52.5076 60.0918 51.9738L59.7554 51.6375C60.139 50.9109 60.4539 50.152 60.6973 49.368H61.1736C62.732 49.368 63.9997 48.1023 63.9997 46.5464V44.263C64 42.7073 62.7322 41.4415 61.1739 41.4415ZM2.52113 17.1595V7.31814C2.52113 4.98876 4.07525 3.02064 5.91475 3.02064H53.5267C55.3662 3.02064 56.9204 4.98876 56.9204 7.31814V17.1596L2.52113 17.1595ZM61.4789 46.5466C61.4789 46.7068 61.3364 46.8471 61.1738 46.8471H59.7323C59.1445 46.8471 58.6348 47.2533 58.5035 47.8261C58.2313 49.0143 57.7636 50.141 57.1135 51.1754C56.8004 51.6735 56.8735 52.322 57.2897 52.7379L58.3097 53.7573C58.386 53.8335 58.3973 53.9245 58.3973 53.972C58.3971 54.0288 58.3824 54.1111 58.3088 54.1841L56.6982 55.7975C56.6219 55.8738 56.5307 55.8853 56.4827 55.8853C56.4826 55.8853 56.4825 55.8853 56.4825 55.8853C56.4252 55.8853 56.3426 55.8704 56.2687 55.796L55.245 54.7765C54.8286 54.3619 54.1814 54.29 53.6842 54.6025C52.6484 55.2541 51.5169 55.7225 50.321 55.9946C49.7474 56.1254 49.3402 56.6354 49.3402 57.2239V58.6753C49.3402 58.8373 49.1994 58.9795 49.0389 58.9795H46.7542C46.5936 58.9795 46.4528 58.8374 46.4528 58.6753V57.2203C46.4528 56.6313 46.0447 56.1206 45.4702 55.9908C44.2896 55.7238 43.1601 55.2561 42.1134 54.6011C41.9071 54.472 41.6754 54.409 41.445 54.409C41.1194 54.409 40.7966 54.5349 40.5535 54.7781L39.5336 55.7975C39.4573 55.8738 39.3661 55.8853 39.3181 55.8853C39.318 55.8853 39.3179 55.8853 39.3177 55.8853C39.2606 55.8853 39.1779 55.8704 39.1055 55.7976L37.4904 54.1833C37.3773 54.0703 37.3785 53.87 37.4889 53.759L38.5125 52.7395C38.9308 52.323 39.0039 51.6723 38.6888 51.1733C38.0376 50.1423 37.5694 49.0163 37.2969 47.8265C37.1656 47.2536 36.6559 46.8474 36.068 46.8474H34.6193C34.4559 46.8474 34.3177 46.7098 34.3177 46.5469V44.2635C34.3177 44.1006 34.4559 43.9629 34.6193 43.9629H36.0644C36.6528 43.9629 37.163 43.5558 37.2936 42.9821C37.5626 41.8 38.0249 40.6786 38.6675 39.6489C38.9777 39.1518 38.9045 38.5064 38.4906 38.0914L37.4594 37.0571C37.3894 36.9876 37.3746 36.9053 37.3745 36.8485C37.3745 36.801 37.3858 36.71 37.462 36.6339L39.0735 35.0231C39.1499 34.9469 39.241 34.9354 39.289 34.9354H39.2894C39.3465 34.9355 39.4292 34.9503 39.5031 35.0246L40.5196 36.0371C40.9373 36.453 41.5869 36.5243 42.0841 36.2088C43.1141 35.5558 44.2423 35.0828 45.437 34.8031C46.007 34.6698 46.4101 34.1613 46.4101 33.5758V32.135C46.4101 31.9701 46.5481 31.8308 46.7115 31.8308H48.9926C49.158 31.8308 49.2977 31.9701 49.2977 32.135V33.5545C49.2977 34.1451 49.7077 34.6565 50.2844 34.7849C51.4837 35.052 52.628 35.5238 53.6854 36.1871C54.1823 36.4986 54.8289 36.4266 55.2449 36.0124L56.2728 34.9886C56.3425 34.9185 56.4251 34.9038 56.4823 34.9036H56.4826C56.5306 34.9036 56.6218 34.9151 56.698 34.9914L58.3096 36.602C58.3859 36.6783 58.3971 36.7693 58.3971 36.8168C58.397 36.8735 58.3822 36.9559 58.3081 37.0295L57.288 38.0526C56.8726 38.4693 56.8006 39.1178 57.1145 39.6153C57.7671 40.6499 58.2366 41.7829 58.5101 42.9826C58.6409 43.5561 59.1509 43.963 59.7393 43.963H61.1738C61.3363 43.963 61.4789 44.1036 61.4789 44.2636V46.5466Z" fill="black"/>
</svg>
