<svg width="62" height="64" viewBox="0 0 62 64" fill="none" xmlns="http://www.w3.org/2000/svg">
<path d="M55.4703 27.6024C58.3476 27.6024 60.68 25.2699 60.68 22.3927C60.68 19.5154 58.3476 17.183 55.4703 17.183C52.5931 17.183 50.2606 19.5154 50.2606 22.3927C50.2606 25.2699 52.5931 27.6024 55.4703 27.6024Z" fill="#9A88FB"/>
<path d="M51.7748 56.472C54.652 56.472 56.9845 54.1395 56.9845 51.2623C56.9845 48.3851 54.652 46.0526 51.7748 46.0526C48.8975 46.0526 46.5651 48.3851 46.5651 51.2623C46.5651 54.1395 48.8975 56.472 51.7748 56.472Z" fill="#9A88FB"/>
<path d="M6.53001 41.9884C9.40724 41.9884 11.7397 39.6559 11.7397 36.7787C11.7397 33.9014 9.40724 31.569 6.53001 31.569C3.65277 31.569 1.32031 33.9014 1.32031 36.7787C1.32031 39.6559 3.65277 41.9884 6.53001 41.9884Z" fill="white"/>
<path d="M10.1823 40.488C9.2482 41.4221 7.95419 41.9903 6.52771 41.9903C3.65573 41.9903 1.32031 39.6549 1.32031 36.7766C1.32031 34.277 3.08138 32.1878 5.42939 31.6891C4.45737 32.6296 3.85771 33.9488 3.85771 35.4069C3.85771 38.2852 6.19313 40.6143 9.06511 40.6143C9.45018 40.6142 9.82255 40.57 10.1823 40.488Z" fill="#E7E6FD"/>
<path d="M8.55131 22.6258C11.4285 22.6258 13.761 20.2934 13.761 17.4161C13.761 14.5389 11.4285 12.2064 8.55131 12.2064C5.67407 12.2064 3.34161 14.5389 3.34161 17.4161C3.34161 20.2934 5.67407 22.6258 8.55131 22.6258Z" fill="white"/>
<path d="M11.5647 21.6655C10.7189 22.2715 9.67747 22.625 8.55396 22.625C5.67569 22.625 3.34027 20.2959 3.34027 17.4176C3.34027 14.6718 5.46111 12.4248 8.15629 12.2228C6.82438 13.1633 5.95965 14.716 5.95965 16.4707C5.95965 19.349 8.29506 21.6781 11.1733 21.6781C11.3059 21.6781 11.4384 21.6718 11.5647 21.6655Z" fill="#E7E6FD"/>
<path d="M28.8457 17.0205C31.723 17.0205 34.0554 14.688 34.0554 11.8108C34.0554 8.93353 31.723 6.60107 28.8457 6.60107C25.9685 6.60107 23.636 8.93353 23.636 11.8108C23.636 14.688 25.9685 17.0205 28.8457 17.0205Z" fill="#9A88FB"/>
<path d="M49.1402 11.8109C52.0175 11.8109 54.3499 9.47841 54.3499 6.60117C54.3499 3.72394 52.0175 1.39148 49.1402 1.39148C46.263 1.39148 43.9305 3.72394 43.9305 6.60117C43.9305 9.47841 46.263 11.8109 49.1402 11.8109Z" fill="white"/>
<path d="M46.2049 7.16692C46.2049 9.19307 47.3601 10.9541 49.0516 11.8126C46.2112 11.7621 43.9326 9.44555 43.9326 6.59887C43.9326 3.72689 46.2617 1.39148 49.14 1.39148C49.9921 1.39148 50.8001 1.59346 51.507 1.95953H51.4123C48.5341 1.95953 46.2049 4.29494 46.2049 7.16692Z" fill="#E7E6FD"/>
<path d="M41.1013 39.1337C43.9785 39.1337 46.311 36.8013 46.311 33.9241C46.311 31.0468 43.9785 28.7144 41.1013 28.7144C38.2241 28.7144 35.8916 31.0468 35.8916 33.9241C35.8916 36.8013 38.2241 39.1337 41.1013 39.1337Z" fill="#9A88FB"/>
<path d="M23.7034 45.5815C26.5806 45.5815 28.9131 43.249 28.9131 40.3718C28.9131 37.4946 26.5806 35.1621 23.7034 35.1621C20.8262 35.1621 18.4937 37.4946 18.4937 40.3718C18.4937 43.249 20.8262 45.5815 23.7034 45.5815Z" fill="white"/>
<path d="M27.673 43.745C26.7199 44.8685 25.2934 45.5819 23.7028 45.5819C20.8245 45.5819 18.4954 43.2465 18.4954 40.3745C18.4954 38.0517 20.0103 36.0823 22.1121 35.407C21.3295 36.3159 20.8623 37.5025 20.8623 38.7902C20.8623 41.6685 23.1914 43.9976 26.0697 43.9976C26.6315 43.9975 27.168 43.9091 27.673 43.745Z" fill="#E7E6FD"/>
<path d="M38.7311 59.9583C43.0633 58.1626 45.1195 53.1949 43.3238 48.8627C41.5281 44.5305 36.5604 42.4742 32.2282 44.2699C27.8959 46.0656 25.8397 51.0333 27.6354 55.3656C29.4311 59.6978 34.3988 61.7541 38.7311 59.9583Z" fill="#FBECB3"/>
<path d="M55.47 16.5894C54.8945 16.5894 54.3394 16.6765 53.8141 16.8333L51.785 11.7605C53.6575 10.7967 54.9436 8.84804 54.9436 6.60115C54.9436 3.40125 52.3402 0.797974 49.1405 0.797974C45.6757 0.797974 42.8643 3.87291 43.4098 7.47206L34.3026 9.85542C33.4974 7.61616 31.3587 6.00755 28.8456 6.00755C25.3277 6.00755 22.5188 9.1641 23.13 12.7794L13.9098 15.1923C13.0354 13.093 10.9635 11.6127 8.55128 11.6127C5.35138 11.6127 2.7481 14.2161 2.7481 17.4159C2.7481 19.9912 4.43567 22.1774 6.76212 22.9338L6.30196 30.9869C3.20826 31.108 0.726807 33.6557 0.726807 36.7786C0.726807 39.9785 3.3302 42.5817 6.52998 42.5817C8.96191 42.5817 11.0458 41.0764 11.9078 38.9499L17.9189 40.0058C17.7049 43.4094 20.4141 46.175 23.7035 46.175C25.8682 46.175 27.7565 44.9814 28.754 43.2199L31.0643 44.1756C28.2718 45.7268 26.3758 48.7044 26.3758 52.1191C26.3758 57.1273 30.4504 61.2018 35.4589 61.2018C40.4675 61.2018 44.542 57.1273 44.542 52.1191C44.542 51.2447 44.411 50.4015 44.1794 49.6007L46.047 50.3733C45.4879 53.9843 48.3073 57.0656 51.7747 57.0656C54.9746 57.0656 57.5779 54.4622 57.5779 51.2625C57.5779 48.5613 55.7203 46.292 53.2173 45.6481L55.374 28.1911C58.6714 28.2464 61.2734 25.5761 61.2734 22.3927C61.2733 19.1928 58.6699 16.5894 55.47 16.5894ZM52.7162 17.2861C51.7043 17.834 50.8749 18.6752 50.3372 19.6933L46.4255 18.0071L47.9951 12.2898C48.9169 12.475 49.8057 12.4315 50.6783 12.191L52.7162 17.2861ZM41.1014 38.5401C38.556 38.5401 36.4854 36.4695 36.4854 33.9241C36.4854 31.3787 38.556 29.3082 41.1014 29.3082C43.6468 29.3082 45.7174 31.3787 45.7174 33.9241C45.7174 36.4695 43.6468 38.5401 41.1014 38.5401ZM27.4912 35.985L32.1472 29.8599L35.7392 31.7104C35.4564 32.3932 35.2982 33.1403 35.2982 33.9241C35.2982 34.3313 35.3413 34.7284 35.4215 35.1122L28.9911 37.9935C28.641 37.2184 28.1267 36.5346 27.4912 35.985ZM25.0883 16.2253C25.6073 16.6678 26.2055 17.0169 26.8577 17.2558L25.6112 25.157L19.886 22.2075L25.0883 16.2253ZM28.0131 17.5473C30.7498 17.9433 33.2238 16.3913 34.2054 14.0318L40.5945 16.7861L31.8056 28.3481L26.7222 25.7294L28.0131 17.5473ZM46.8616 11.9369L45.3253 17.5328L42.4575 16.2965L46.0844 11.5253C46.3327 11.6798 46.5903 11.8205 46.8616 11.9369ZM45.0078 18.6887L42.3781 28.267C41.9666 28.1741 41.5405 28.1208 41.1014 28.1208C39.1089 28.1208 37.3485 29.1309 36.3031 30.6651L32.8768 28.9001L41.7173 17.2702L45.0078 18.6887ZM31.0759 29.3079L26.5195 35.3019C26.1352 35.0875 25.7235 34.9183 25.2919 34.7952L26.5273 26.9646L31.0759 29.3079ZM43.5041 28.648L46.1083 19.1631L49.8956 20.7956C49.4587 22.318 49.6635 23.8798 50.391 25.1935L45.454 30.0983C44.9159 29.4871 44.2534 28.9907 43.5041 28.648ZM49.1405 1.98518C51.6858 1.98518 53.7564 4.05576 53.7564 6.60115C53.7564 9.14654 51.6858 11.2171 49.1405 11.2171C46.5951 11.2171 44.5245 9.14654 44.5245 6.60115C44.5245 4.05576 46.5951 1.98518 49.1405 1.98518ZM43.7073 8.62136C44.0183 9.4546 44.5127 10.1971 45.1453 10.7993L41.3346 15.8124L34.5451 12.8856C34.6781 12.1795 34.6731 11.6273 34.5868 11.0082L43.7073 8.62136ZM28.8457 7.19475C31.3911 7.19475 33.4617 9.26533 33.4617 11.8107C33.4617 14.3561 31.3911 16.4267 28.8457 16.4267C26.3004 16.4267 24.2298 14.3561 24.2298 11.8107C24.2298 9.26533 26.3004 7.19475 28.8457 7.19475ZM23.4465 13.9237C23.6509 14.444 23.9279 14.9268 24.2657 15.3616L18.7993 21.6477L14.0675 19.2099C14.3622 18.3061 14.4418 17.3443 14.249 16.3308L23.4465 13.9237ZM3.93531 17.416C3.93531 14.8706 6.00589 12.8001 8.55128 12.8001C11.0967 12.8001 13.1673 14.8706 13.1673 17.416C13.1673 19.9614 11.0967 22.032 8.55128 22.032C6.00589 22.032 3.93531 19.9614 3.93531 17.416ZM13.5826 20.2958L17.9972 22.57L9.80412 31.9917C9.12236 31.5239 8.33489 31.2029 7.48699 31.0612L7.93697 23.1859C10.2776 23.4337 12.4558 22.2564 13.5826 20.2958ZM6.52998 41.3948C3.98459 41.3948 1.91401 39.3242 1.91401 36.7788C1.91401 34.2334 3.98459 32.1628 6.52998 32.1628C9.07537 32.1628 11.146 34.2334 11.146 36.7788C11.146 39.3241 9.07537 41.3948 6.52998 41.3948ZM12.2371 37.8027C12.5791 35.8934 11.9598 34.0628 10.7081 32.7614L19.0839 23.13L25.4164 26.3923L24.1231 34.59C21.2438 34.3824 18.8182 36.2759 18.1134 38.835L12.2371 37.8027ZM23.7034 44.9879C21.158 44.9879 19.0874 42.9173 19.0874 40.3719C19.0874 37.8265 21.158 35.7559 23.7034 35.7559C26.2488 35.7559 28.3194 37.8265 28.3194 40.3719C28.3194 42.9173 26.2488 44.9879 23.7034 44.9879ZM35.4588 60.0148C31.1047 60.0148 27.5629 56.4729 27.5629 52.1192C27.5629 47.7655 31.1047 44.2233 35.4588 44.2233C39.8128 44.2233 43.3547 47.7654 43.3547 52.1192C43.3547 56.473 39.8128 60.0148 35.4588 60.0148ZM43.576 48.0666C42.0832 45.0893 39.01 43.0361 35.4588 43.0361C34.4486 43.0361 33.4798 43.2089 32.5713 43.5145L29.2316 42.133C29.5396 41.1685 29.5939 40.151 29.3683 39.1254L35.7879 36.2489C36.6863 38.2939 38.7284 39.7272 41.1014 39.7272C42.1486 39.7272 43.1291 39.4443 43.9782 38.957L48.464 46.5025C47.5108 47.1676 46.7694 48.1114 46.3514 49.2146L43.576 48.0666ZM56.3906 51.2623C56.3906 53.8077 54.32 55.8783 51.7746 55.8783C49.2292 55.8783 47.1586 53.8077 47.1586 51.2623C47.1586 48.717 49.2292 46.6464 51.7746 46.6464C54.32 46.6464 56.3906 48.717 56.3906 51.2623ZM52.0429 45.4727C51.1433 45.4312 50.32 45.574 49.5013 45.9239L44.945 38.26C46.1439 37.1961 46.9047 35.649 46.9047 33.9239C46.9047 32.8894 46.6293 31.9194 46.1531 31.0775L51.0829 26.1798C51.8814 27.1035 52.9639 27.7726 54.1951 28.05L52.0429 45.4727ZM55.47 27.0087C52.9246 27.0087 50.854 24.9381 50.854 22.3927C50.854 19.8474 52.9246 17.7768 55.47 17.7768C58.0154 17.7768 60.086 19.8474 60.086 22.3927C60.086 24.9381 58.0154 27.0087 55.47 27.0087Z" fill="#3A4B81"/>
<path d="M32.8983 47.8322C31.5528 47.8322 30.4578 48.9268 30.4578 50.2723C30.4578 50.428 30.4578 55.8723 30.4578 55.8124C30.4578 56.1402 30.7232 56.406 31.0514 56.406C31.3794 56.406 31.645 56.1402 31.645 55.8124V52.7128H34.151V55.8124C34.151 56.1402 34.4164 56.406 34.7446 56.406C35.0728 56.406 35.3382 56.1402 35.3382 55.8124C35.3382 55.5416 35.3382 50.0066 35.3382 50.2723C35.3382 48.9268 34.2438 47.8322 32.8983 47.8322ZM31.6451 51.5256V50.2723C31.6451 49.5814 32.2073 49.0194 32.8984 49.0194C33.5894 49.0194 34.1511 49.5814 34.1511 50.2723V51.5256H31.6451Z" fill="#3A4B81"/>
<path d="M39.8661 49.0194C40.1943 49.0194 40.4597 48.7536 40.4597 48.4258C40.4597 48.098 40.1943 47.8322 39.8661 47.8322H37.2112C36.8831 47.8322 36.6176 48.098 36.6176 48.4258C36.6176 48.7536 36.883 49.0194 37.2112 49.0194H37.945V55.2188H37.2112C36.8831 55.2188 36.6176 55.4846 36.6176 55.8124C36.6176 56.1402 36.883 56.406 37.2112 56.406H39.8661C40.1943 56.406 40.4597 56.1402 40.4597 55.8124C40.4597 55.4846 40.1943 55.2188 39.8661 55.2188H39.1323V49.0194H39.8661Z" fill="#3A4B81"/>
</svg>
